<svg xmlns="http://www.w3.org/2000/svg" width="1080" height="1080" viewBox="0 0 1080 1080" version="1.1">
	<path d="M 570.477 55.250 C 570.224 55.938, 569.900 64.150, 569.758 73.500 L 569.500 90.500 529.273 90.761 L 489.046 91.023 488.773 108.761 L 488.500 126.500 449.500 127 L 410.500 127.500 410 147 L 409.500 166.500 390 167 L 370.500 167.500 370 186 L 369.500 204.500 349.750 204.771 L 330 205.042 330 224.021 L 330 243 309.500 243 L 289 243 289 261.979 L 289 280.958 269.250 281.229 L 249.500 281.500 248.949 302.500 C 248.645 314.050, 248.308 323.613, 248.199 323.750 C 248.089 323.887, 239 324, 228 324 L 208 324 208 360 L 208 396 188.500 396 L 169 396 169 433.500 L 169 471 149 471 L 129 471 129 603.500 L 129 736 148.989 736 L 168.978 736 169.239 777.250 L 169.500 818.500 189.500 819 L 209.500 819.500 209.768 843.250 L 210.036 867 229.518 867 L 249 867 249 884.479 L 249 901.958 268.750 902.229 L 288.500 902.500 288.775 918.250 L 289.051 934 308.500 934 L 327.949 934 328.225 949.750 L 328.500 965.500 367 966 L 405.500 966.500 405.773 984.250 L 406.046 1002 427.023 1002 L 448 1002 448 1017 L 448 1032 454.250 1032.034 C 457.688 1032.053, 503.700 1032.066, 556.500 1032.063 L 652.500 1032.058 652.772 1013.541 L 653.044 995.024 691.272 994.762 L 729.500 994.500 729.777 979.750 L 730.053 965 749.027 965 L 768 965 768 950.082 C 768 941.877, 768.273 934.452, 768.607 933.582 C 769.131 932.217, 771.802 932, 788.107 932 L 807 932 807 918.200 C 807 908.800, 807.383 904.017, 808.200 903.200 C 809.048 902.352, 814.911 902, 828.200 902 L 847 902 847 869.021 L 847 836.041 867.250 835.771 L 887.500 835.500 887.768 812.250 L 888.037 789 906.584 789 C 917.457 789, 925.932 788.572, 927.066 787.965 C 928.788 787.043, 929 785.788, 929 776.504 C 929 770.770, 928.506 761.540, 927.903 755.994 C 927.035 748.014, 927.080 744.980, 928.121 741.455 L 929.437 737 948.218 737 L 967 737 967 637.521 L 967 538.042 947.250 537.771 L 927.500 537.500 927.241 485.750 L 926.982 434 907.491 434 L 888 434 888 415.021 L 888 396.041 867.750 395.771 L 847.500 395.500 847.228 376.742 L 846.956 357.984 787.728 358.242 L 728.500 358.500 728.228 377.272 L 727.956 396.043 708.728 395.772 L 689.500 395.500 689.244 319.750 C 688.989 244.502, 689.001 244, 690.994 244 C 692.097 244, 693 243.550, 693 243 C 693 242.369, 699.833 242, 711.500 242 L 730 242 730 204 L 730 166 749 166 L 768 166 768 128.500 L 768 91 749.934 91 C 739.393 91, 731.063 90.569, 729.934 89.965 C 728.135 89.002, 728 87.708, 728 71.465 L 728 54 649.469 54 C 587.556 54, 570.840 54.265, 570.477 55.250 M 587.750 127.739 L 570 128.046 570 146.523 L 570 165 609.522 165 L 649.044 165 648.772 146.250 L 648.500 127.500 627 127.466 C 615.175 127.447, 597.513 127.570, 587.750 127.739 M 510.250 166.739 C 495.946 166.965, 490.969 167.359, 490.878 168.272 C 490.811 168.947, 490.474 177.375, 490.128 187 L 489.500 204.500 470 205 L 450.500 205.500 450.228 224.228 L 449.956 242.957 430.728 243.228 L 411.500 243.500 411 262.500 L 410.500 281.500 390.546 281.772 C 376.114 281.968, 370.375 282.384, 369.811 283.272 C 369.382 283.947, 369.024 292.712, 369.015 302.750 L 369 321 349.512 321 L 330.024 321 329.762 359.250 L 329.500 397.500 309.250 397.771 L 289 398.041 289 435.021 L 289 472 308.986 472 L 328.972 472 329.236 440.250 L 329.500 408.500 349.250 408.229 L 369 407.958 369 382.979 L 369 358 388.978 358 L 408.956 358 409.228 339.250 L 409.500 320.500 428.750 320.228 L 448 319.957 448 301.085 C 448 284.800, 448.217 282.131, 449.582 281.607 C 450.452 281.273, 459.452 281, 469.582 281 L 488 281 488 263.082 C 488 253.227, 488.273 244.452, 488.607 243.582 C 489.132 242.215, 491.844 242, 508.585 242 L 527.957 242 528.228 222.750 L 528.500 203.500 549 203 L 569.500 202.500 569.500 184.500 L 569.500 166.500 549.500 166.467 C 538.500 166.449, 520.837 166.571, 510.250 166.739 M 489.772 340.250 L 489.500 359.500 470.500 360 L 451.500 360.500 451.238 397.250 L 450.975 434 469.488 434 L 488 434 488.009 420.750 C 488.013 413.462, 488.301 405.137, 488.648 402.250 L 489.279 397 508.080 397 C 518.421 397, 527.117 396.619, 527.405 396.153 C 527.908 395.340, 528.470 344.735, 528.153 328.750 L 528 321 509.022 321 L 490.043 321 489.772 340.250 M 771.689 434.644 C 771.310 435.023, 771 450.307, 771 468.608 C 771 489.712, 770.634 502.108, 770 502.500 C 769.399 502.871, 769 509.677, 769 519.559 L 769 536 788.509 536 L 808.018 536 807.759 485.250 L 807.500 434.500 789.939 434.228 C 780.280 434.078, 772.068 434.265, 771.689 434.644 M 730.667 538.667 C 730.300 539.033, 730 545.783, 730 553.667 L 730 568 748.500 568 L 767 568 767 553 L 767 538 749.167 538 C 739.358 538, 731.033 538.300, 730.667 538.667 M 690.642 577.147 C 690.289 580.527, 690 586.612, 690 590.669 L 690 598.044 708.750 597.772 L 727.500 597.500 727.779 584.250 L 728.058 571 709.671 571 L 691.285 571 690.642 577.147" stroke="none" fill="#ffffff" fill-rule="evenodd"/>
</svg>