<svg width="1080" height="1080" version="1.1" xmlns="http://www.w3.org/2000/svg" desc="Created with imagetracer.js version 1.2.6" ><path fill="rgb(0,0,0)" stroke="rgb(0,0,0)" stroke-width="1" opacity="0" d="M 0 0 L 1080 0 L 1080 1080 L 0 1080 L 0 0 Z M 564 153 L 564 180 L 505 180 L 504 181 L 504 207 L 446 207 L 446 236 L 417 236 L 417 264 L 387 264 L 387 292 L 358 292 L 358 320 L 330 320 L 328 322 L 328 351 L 299 351 L 298 354 L 298 404 L 271 404 L 270 405 L 270 460 L 240 460 L 240 655 L 241 655 L 270 655 L 270 715 L 299 715 L 299 750 L 328 750 L 328 777 L 358 777 L 358 800 L 387 800 L 387 823 L 443 823 L 443 849 L 445 850 L 474 850 L 474 870 L 475 872 L 625 872 L 625 872 L 625 845 L 681 845 L 682 841 Q 684 835 681 834 Q 679 825 684 822 L 686 823 L 709 823 L 710 822 L 710 799 L 738 799 L 739 798 L 739 777 L 742 776 L 764 776 L 767 777 L 768 776 L 768 727 L 797 727 L 798 726 L 798 694 L 825 694 L 826 693 L 827 693 L 827 656 L 855 656 L 856 655 L 856 510 L 855 508 L 837 509 L 835 509 L 828 509 L 827 509 L 827 433 L 823 432 Q 816 430 815 433 L 798 433 L 798 406 L 797 404 L 768 404 L 768 378 L 767 376 Q 760 374 759 377 L 743 377 L 742 376 L 725 376 L 724 377 L 722 376 L 703 376 L 702 377 L 680 377 L 680 404 L 653 404 L 652 404 L 652 294 L 655 293 L 681 293 L 682 292 L 682 237 L 710 237 L 710 180 L 682 180 L 682 153 L 564 153 Z " /><path fill="rgb(22,6,5)" stroke="rgb(22,6,5)" stroke-width="1" opacity="1" d="M 567.5 153 L 577 153.5 L 567.5 154 L 567.5 153 Z " /><path fill="rgb(22,6,5)" stroke="rgb(22,6,5)" stroke-width="1" opacity="1" d="M 632.5 153 L 639 153.5 L 632.5 154 L 632.5 153 Z " /><path fill="rgb(22,6,5)" stroke="rgb(22,6,5)" stroke-width="1" opacity="1" d="M 666.5 153 L 679.5 153 L 681 154.5 L 681 181 L 708.5 181 L 709 182.5 L 707.5 182 L 681.5 182 L 680 180.5 L 680 154 L 666.5 154 L 666.5 153 Z " /><path fill="rgb(22,6,5)" stroke="rgb(22,6,5)" stroke-width="1" opacity="1" d="M 564.5 154 L 565 180.5 L 563.5 182 L 505.5 182 L 505.5 181 L 564 181 L 564.5 154 Z " /><path fill="rgb(22,6,5)" stroke="rgb(22,6,5)" stroke-width="1" opacity="1" d="M 593.5 180 L 650.5 180 L 652 181.5 L 652 237 L 623.5 237 L 622 237.5 L 623.5 236 L 651 236 L 651 181 L 594.5 181 L 593 182.5 L 593 207 L 578 206.5 L 592 206 L 592 181.5 L 593.5 180 Z " /><path fill="rgb(22,6,5)" stroke="rgb(22,6,5)" stroke-width="1" opacity="1" d="M 565.5 206 L 577 206.5 L 565.5 207 L 565.5 206 Z " /><path fill="rgb(22,6,5)" stroke="rgb(22,6,5)" stroke-width="1" opacity="1" d="M 447.5 208 Q 450.3 209.3 448 210.5 L 448 235.5 L 446.5 237 L 447 235.5 L 447.5 208 Z " /><path fill="rgb(22,6,5)" stroke="rgb(22,6,5)" stroke-width="1" opacity="1" d="M 533.5 208 L 534 235.5 L 533 235.5 L 533.5 208 Z " /><path fill="rgb(22,6,5)" stroke="rgb(22,6,5)" stroke-width="1" opacity="1" d="M 708.5 234 L 709 236 L 681 236 L 681 292 L 654.5 292 L 654.5 291 L 680 291 L 680 236.5 L 681.5 235 L 707.5 235 L 708.5 234 Z " /><path fill="rgb(22,6,5)" stroke="rgb(22,6,5)" stroke-width="1" opacity="1" d="M 476 236 L 505 236.5 L 477 237 L 476.5 253 L 476 236 Z " /><path fill="rgb(22,6,5)" stroke="rgb(22,6,5)" stroke-width="1" opacity="1" d="M 622.5 239 L 623 293 L 594 293 L 594 378 L 564.5 378 L 564.5 377 L 593 377 L 593 292.5 L 593.5 292 L 622 292 L 622.5 239 Z " /><path fill="rgb(22,6,5)" stroke="rgb(22,6,5)" stroke-width="1" opacity="1" d="M 417.5 241 L 418 246.5 L 417 246.5 L 417.5 241 Z " /><path fill="rgb(22,6,5)" stroke="rgb(22,6,5)" stroke-width="1" opacity="1" d="M 476.5 260 L 477 262.5 L 475.5 264 L 448 264 L 448 291.5 L 446.5 293 L 421.5 293 L 417 294 L 417.5 292 L 447 292 L 447 264.5 L 448.5 263 L 476 263 L 476.5 260 Z " /><path fill="rgb(22,6,5)" stroke="rgb(22,6,5)" stroke-width="1" opacity="1" d="M 417.5 262 L 418 265 L 413 264.5 L 417 264 L 417.5 262 Z " /><path fill="rgb(22,6,5)" stroke="rgb(22,6,5)" stroke-width="1" opacity="1" d="M 401.5 264 L 405 264.5 L 401.5 265 L 401.5 264 Z " /><path fill="rgb(22,6,5)" stroke="rgb(22,6,5)" stroke-width="1" opacity="1" d="M 387.5 292 L 388 294 L 359 294 L 359 322 L 329.5 322 L 329.5 321 L 358 321 L 358 294.5 L 359.5 293 L 386.5 293 L 387.5 292 Z " /><path fill="rgb(22,6,5)" stroke="rgb(22,6,5)" stroke-width="1" opacity="1" d="M 416.5 305 L 417 322 L 388 322 L 388 350 L 360.5 350 L 360.5 349 L 387 349 L 387 321 L 416 321 L 416.5 305 Z " /><path fill="rgb(22,6,5)" stroke="rgb(22,6,5)" stroke-width="1" opacity="1" d="M 681.5 377 L 709 377.5 L 681.5 378 L 681.5 377 Z " /><path fill="rgb(22,6,5)" stroke="rgb(22,6,5)" stroke-width="1" opacity="1" d="M 714.5 377 L 734 377.5 L 714.5 378 L 714.5 377 Z " /><path fill="rgb(22,6,5)" stroke="rgb(22,6,5)" stroke-width="1" opacity="1" d="M 735.5 377 L 767 377.5 L 735.5 378 L 735.5 377 Z " /><path fill="rgb(22,6,5)" stroke="rgb(22,6,5)" stroke-width="1" opacity="1" d="M 271.5 405 L 299 405.5 L 271 406 L 271 461 L 242.5 461 L 242 461.5 L 242 653.5 L 241 653.5 L 241 461.5 L 242.5 460 L 270 460 L 270 406.5 L 271.5 405 Z " /><path fill="rgb(22,6,5)" stroke="rgb(22,6,5)" stroke-width="1" opacity="1" d="M 327 405 L 329 405.5 L 328 406.5 L 328 458.5 L 326.5 460 L 299.5 460 L 299 460.5 L 299 646 L 328 646 L 328 688.5 L 329.5 690 L 358 690 L 357.5 699 L 357 691 L 328.5 691 L 327 689.5 L 327 647 L 298.5 647 L 298 646.5 L 298 459 L 327 459 L 327 405 Z " /><path fill="rgb(22,6,5)" stroke="rgb(22,6,5)" stroke-width="1" opacity="1" d="M 710.5 405 L 738.5 405 L 739 406.5 L 737.5 406 L 710 406 L 710 432.5 L 711 433.5 L 711 462.5 L 710 462.5 L 709 406.5 L 710.5 405 Z " /><path fill="rgb(22,6,5)" stroke="rgb(22,6,5)" stroke-width="1" opacity="1" d="M 796.5 405 L 797 432.5 L 796 432.5 L 796.5 405 Z " /><path fill="rgb(22,6,5)" stroke="rgb(22,6,5)" stroke-width="1" opacity="1" d="M 767.5 433 L 768 459.5 L 769 460.5 L 767 459.5 L 767.5 433 Z " /><path fill="rgb(22,6,5)" stroke="rgb(22,6,5)" stroke-width="1" opacity="1" d="M 825.5 453 L 826 484.5 L 825 484.5 L 825.5 453 Z " /><path fill="rgb(22,6,5)" stroke="rgb(22,6,5)" stroke-width="1" opacity="1" d="M 784.5 460 L 793 460.5 L 784.5 461 L 784.5 460 Z " /><path fill="rgb(22,6,5)" stroke="rgb(22,6,5)" stroke-width="1" opacity="1" d="M 797.5 460 L 798 621.5 L 796.5 623 L 768 623 L 768 645 L 739.5 645 L 739.5 644 L 767 644 L 767 622 L 796.5 622 L 797 621.5 L 797.5 460 Z " /><path fill="rgb(22,6,5)" stroke="rgb(22,6,5)" stroke-width="1" opacity="1" d="M 710.5 471 L 711 476.5 L 710 476.5 L 710.5 471 Z " /><path fill="rgb(22,6,5)" stroke="rgb(22,6,5)" stroke-width="1" opacity="1" d="M 680 483 L 682 483.5 L 681 484.5 L 680.5 509 L 680 483 Z " /><path fill="rgb(22,6,5)" stroke="rgb(22,6,5)" stroke-width="1" opacity="1" d="M 825.5 500 L 826 508.5 L 825 508.5 L 825.5 500 Z " /><path fill="rgb(22,6,5)" stroke="rgb(22,6,5)" stroke-width="1" opacity="1" d="M 651.5 509 L 652 575.5 L 651 575.5 L 651.5 509 Z " /><path fill="rgb(22,6,5)" stroke="rgb(22,6,5)" stroke-width="1" opacity="1" d="M 564.5 531 L 592.5 531 L 594 532.5 L 594 578 L 623 578 L 623 622 L 652 622 L 652 644 L 681 644 L 681 665.5 L 680 665.5 L 680 645 L 652.5 645 L 651 643.5 L 651 623 L 623.5 623 L 622 621.5 L 622 579 L 593.5 579 L 593 578.5 L 593 532 L 564.5 532 L 564.5 531 Z " /><path fill="rgb(22,6,5)" stroke="rgb(22,6,5)" stroke-width="1" opacity="1" d="M 652.5 577 L 682 577 L 682 601 L 709.5 601 L 711 602.5 L 711 617.5 L 710 617.5 L 710 602 L 681 602 L 681 578 L 652.5 578 L 652.5 577 Z " /><path fill="rgb(22,6,5)" stroke="rgb(22,6,5)" stroke-width="1" opacity="1" d="M 727.5 622 L 737 622.5 L 727.5 623 L 727.5 622 Z " /><path fill="rgb(22,6,5)" stroke="rgb(22,6,5)" stroke-width="1" opacity="1" d="M 270.5 654 L 271 713.5 L 270 713.5 L 270.5 654 Z " /><path fill="rgb(22,6,5)" stroke="rgb(22,6,5)" stroke-width="1" opacity="1" d="M 826 654 L 855 654.5 L 827.5 655 L 826.5 656 L 826 654 Z " /><path fill="rgb(22,6,5)" stroke="rgb(22,6,5)" stroke-width="1" opacity="1" d="M 709.5 666 L 710 724.5 L 708.5 726 L 681 726 L 681 750 L 652 750 L 652 776 L 623 776 L 623 800 L 476.5 800 L 476.5 799 L 621.5 799 L 622 798.5 L 622 776.5 L 623.5 775 L 651 775 L 651 750.5 L 652.5 749 L 680 749 L 680 725 L 709 725 L 709.5 666 Z " /><path fill="rgb(22,6,5)" stroke="rgb(22,6,5)" stroke-width="1" opacity="1" d="M 796 692 L 825 692.5 L 797 693 L 797 725.5 L 795.5 727 L 767 726.5 L 796 726 L 796 692 Z " /><path fill="rgb(22,6,5)" stroke="rgb(22,6,5)" stroke-width="1" opacity="1" d="M 357.5 702 L 358 707.5 L 357 707.5 L 357.5 702 Z " /><path fill="rgb(22,6,5)" stroke="rgb(22,6,5)" stroke-width="1" opacity="1" d="M 357.5 711 L 358 720 L 387 720 L 387 747 L 416.5 747 L 416.5 748 L 387.5 748 L 386 746.5 L 386 721 L 358.5 721 L 357 719.5 L 357.5 711 Z " /><path fill="rgb(22,6,5)" stroke="rgb(22,6,5)" stroke-width="1" opacity="1" d="M 766.5 741 L 767 750.5 L 766 750.5 L 766.5 741 Z " /><path fill="rgb(22,6,5)" stroke="rgb(22,6,5)" stroke-width="1" opacity="1" d="M 315.5 748 L 326 748.5 L 315.5 749 L 315.5 748 Z " /><path fill="rgb(22,6,5)" stroke="rgb(22,6,5)" stroke-width="1" opacity="1" d="M 416.5 764 L 417 775 L 448 775.5 L 417.5 776 L 416 774.5 L 416.5 764 Z " /><path fill="rgb(22,6,5)" stroke="rgb(22,6,5)" stroke-width="1" opacity="1" d="M 329.5 775 L 353 775.5 L 329.5 776 L 329.5 775 Z " /><path fill="rgb(22,6,5)" stroke="rgb(22,6,5)" stroke-width="1" opacity="1" d="M 738.5 775 L 767 775.5 L 738.5 776 L 738.5 775 Z " /><path fill="rgb(22,6,5)" stroke="rgb(22,6,5)" stroke-width="1" opacity="1" d="M 358.5 776 L 359 798 L 386.5 798 L 388 799.5 L 386.5 799 L 358 799 L 358.5 776 Z " /><path fill="rgb(22,6,5)" stroke="rgb(22,6,5)" stroke-width="1" opacity="1" d="M 737.5 794 L 738 798 L 736 797.5 L 737.5 794 Z " /><path fill="rgb(22,6,5)" stroke="rgb(22,6,5)" stroke-width="1" opacity="1" d="M 708.5 816 L 709 822 L 681 822 L 681 842.5 L 679.5 844 L 625 844 L 624.5 846 L 624 844.5 L 625.5 843 L 680 843 L 680 822.5 L 681.5 821 L 707.5 821 L 708.5 816 Z " /><path fill="rgb(22,6,5)" stroke="rgb(22,6,5)" stroke-width="1" opacity="1" d="M 390.5 822 L 423 822.5 L 390.5 823 L 390.5 822 Z " /><path fill="rgb(22,6,5)" stroke="rgb(22,6,5)" stroke-width="1" opacity="1" d="M 426.5 822 L 443.5 822 L 445 823.5 L 444.5 849 L 444 823 L 426.5 823 L 426.5 822 Z " /><path fill="rgb(22,6,5)" stroke="rgb(22,6,5)" stroke-width="1" opacity="1" d="M 466.5 848 L 473 848.5 L 466.5 849 L 466.5 848 Z " /><path fill="rgb(22,6,5)" stroke="rgb(22,6,5)" stroke-width="1" opacity="1" d="M 475.5 849 L 476 869.5 L 475 869.5 L 475.5 849 Z " /><path fill="rgb(22,6,5)" stroke="rgb(22,6,5)" stroke-width="1" opacity="1" d="M 524.5 870 L 527 870.5 L 524.5 871 L 524.5 870 Z " /><path fill="rgb(0,0,0)" stroke="rgb(0,0,0)" stroke-width="1" opacity="1" d="M 565 154 L 679.5 154 L 680 154.5 L 680 180.5 L 681.5 182 L 707.5 182 L 709 183.5 L 709 233.5 L 707.5 235 L 681.5 235 L 680 236.5 L 680 291 L 654.5 291 L 651 292 L 651 404.5 L 651.5 405 L 681 405 L 681 378 L 708.5 378 L 713.5 377 L 714.5 378 L 733.5 378 L 735.5 378 L 767 378 L 767 405 L 796 405 L 796 433 L 826 433 L 826 452.5 L 825 453.5 L 825 484.5 L 826 485.5 L 826 499.5 L 825 500.5 L 825 509 L 854.5 509 L 855 509.5 L 855 654 L 826 654 L 826 692 L 796 692 L 796 726 L 767 726 L 767 740.5 L 766 741.5 L 766 750.5 L 767 751.5 L 767 775 L 738 775 L 738 793.5 L 735.5 798 L 709 798 L 709 815.5 L 708 821 L 681.5 821 L 680 822.5 L 680 843 L 625.5 843 L 624 844.5 L 624 871 L 527.5 871 L 524.5 870 L 523.5 871 L 476 871 L 476 849.5 L 473.5 849 Q 472 846.5 466.5 848 L 465.5 849 L 445 849 L 445 823.5 L 443.5 822 L 388 822 L 388 799.5 L 386.5 798 L 359 798 L 359 776.5 Q 358.9 775.4 353.5 776 L 352.5 775 L 329 775 L 329 749.5 L 326.5 749 L 325.5 748 L 315.5 748 L 314.5 749 L 301.5 749 L 300 747.5 L 300 714 L 271 714 L 271 654 L 242.5 654 L 242 653.5 L 242 461 L 271 461 L 271 406 L 298.5 406 L 300 404.5 L 300 352 L 329 352 L 329 322 L 359 322 L 359 294 L 388 294 L 388 265 L 418 265 L 418 237 L 446.5 237 L 448 235.5 L 448 210.5 L 449 209.5 L 448.5 208 L 505 208 L 505 182.5 L 505.5 182 L 563.5 182 L 565 180.5 L 565 154 Z M 594 180 L 592 182 L 592 206 L 579 206 L 577 206 L 566 206 L 564 208 L 533 208 L 533 236 L 509 236 L 508 235 L 506 236 L 476 236 L 476 263 L 449 263 L 447 265 L 447 292 L 417 292 L 417 305 L 416 306 L 416 321 L 387 321 L 387 349 L 361 349 L 358 350 L 358 404 L 357 405 L 327 405 L 327 459 L 298 459 L 298 647 L 299 647 L 327 647 L 327 690 L 329 691 L 357 691 L 357 699 L 358 700 L 357 703 Q 356 707 358 709 L 357 712 L 357 720 L 359 721 L 386 721 L 386 747 L 388 748 L 417 748 L 417 764 L 416 765 L 416 775 L 418 776 L 448 776 L 448 800 L 623 800 L 623 800 L 623 776 L 652 776 L 652 750 L 681 750 L 681 726 L 709 726 L 710 725 L 710 666 L 681 666 L 681 644 L 652 644 L 652 622 L 623 622 L 623 578 L 595 578 L 594 578 L 594 533 L 593 531 L 564 531 L 564 379 L 565 378 L 594 378 L 594 294 L 595 293 L 623 293 L 623 237 L 652 237 L 652 182 L 651 180 L 594 180 Z M 711 405 L 709 407 L 709 433 L 710 434 L 710 482 L 709 483 L 680 483 L 680 509 L 651 509 L 651 576 L 652 577 L 653 578 L 681 578 L 681 602 L 710 602 L 710 623 L 739 623 L 739 645 L 768 645 L 768 623 L 797 623 L 798 622 L 798 460 L 768 460 L 768 433 L 739 433 L 739 405 L 711 405 Z " /><path fill="rgb(230,77,77)" stroke="rgb(230,77,77)" stroke-width="1" opacity="0.996078431372549" d="M 564.5 153 L 567 153.5 L 564.5 154 L 564.5 153 Z " /><path fill="rgb(230,77,77)" stroke="rgb(230,77,77)" stroke-width="1" opacity="0.996078431372549" d="M 577.5 153 L 632 153.5 L 577.5 154 L 577.5 153 Z " /><path fill="rgb(230,77,77)" stroke="rgb(230,77,77)" stroke-width="1" opacity="0.996078431372549" d="M 639.5 153 L 666 153.5 L 639.5 154 L 639.5 153 Z " /><path fill="rgb(230,77,77)" stroke="rgb(230,77,77)" stroke-width="1" opacity="0.996078431372549" d="M 680.5 153 L 682 153.5 L 682 180 L 710 180 L 710 237 L 682 237 L 682 291.5 L 680.5 293 L 654.5 293 L 652 294 L 652 403.5 L 652.5 404 L 680 404 L 680.5 377 L 681 403.5 L 679.5 405 L 651 405 L 651 293.5 L 652.5 292 L 681 292 L 681 236.5 L 681.5 236 L 709 236 L 709 181 L 681 181 L 681 154.5 L 680.5 153 Z " /><path fill="rgb(230,77,77)" stroke="rgb(230,77,77)" stroke-width="1" opacity="0.996078431372549" d="M 504 180 L 564 180.5 L 505 181 L 505 206.5 L 503.5 208 L 447 208 L 447 235.5 L 445.5 237 L 418 237 L 417.5 241 L 417 236 L 446 236 L 446 207 L 504 207 L 504 180 Z " /><path fill="rgb(230,77,77)" stroke="rgb(230,77,77)" stroke-width="1" opacity="0.996078431372549" d="M 594.5 181 L 651 181 L 651 236 L 623.5 236 L 622 237.5 L 622 239.5 L 622 292 L 593.5 292 L 593 292.5 L 593 377 L 564.5 377 L 564 377.5 L 564 532 L 593 532 L 593 578.5 L 593.5 579 L 622 579 L 622 621.5 L 623.5 623 L 651 623 L 651 643.5 L 652.5 645 L 680 645 L 680 666 L 709 666 L 709 725 L 680 725 L 680 749 L 652.5 749 L 651 750.5 L 651 775 L 623.5 775 L 622 776.5 L 622 798.5 L 621.5 799 L 476.5 799 L 475.5 800 L 448 800 L 448 775 L 417 775 L 417 747 L 387 747 L 387 720 L 358 720 L 358 690 L 329.5 690 L 328 688.5 L 328 646 L 299.5 646 L 299 645.5 L 299 460 L 326.5 460 L 328 458.5 L 328 406.5 L 329.5 405 L 358 405 L 358 351.5 L 359.5 350 L 388 350 L 388 322 L 417 322 L 417 294.5 L 420.5 294 L 421.5 293 L 446.5 293 L 448 291.5 L 448 264 L 475.5 264 L 477 260.5 Q 474.5 259 476 253.5 L 477 252.5 L 477 237 L 534 236 L 534 208 L 563.5 208 L 564.5 207 L 593 207 L 593 182.5 L 594.5 181 Z " /><path fill="rgb(230,77,77)" stroke="rgb(230,77,77)" stroke-width="1" opacity="0.996078431372549" d="M 417.5 247 L 418 255.5 L 417 255.5 L 417.5 247 Z " /><path fill="rgb(230,77,77)" stroke="rgb(230,77,77)" stroke-width="1" opacity="0.996078431372549" d="M 417.5 258 L 418 261.5 L 417 261.5 L 417.5 258 Z " /><path fill="rgb(230,77,77)" stroke="rgb(230,77,77)" stroke-width="1" opacity="0.996078431372549" d="M 387 264 L 401 264.5 L 388 265 L 388 291.5 L 386.5 293 L 359.5 293 L 358.5 294 L 358 292 L 387 292 L 387 264 Z " /><path fill="rgb(230,77,77)" stroke="rgb(230,77,77)" stroke-width="1" opacity="0.996078431372549" d="M 405.5 264 L 413 264.5 L 405.5 265 L 405.5 264 Z " /><path fill="rgb(230,77,77)" stroke="rgb(230,77,77)" stroke-width="1" opacity="0.996078431372549" d="M 329.5 320 L 358 320.5 L 329 321 L 329 352 L 300 352 L 300 405 L 271.5 405 L 270 405.5 L 270.5 404 L 298 404 L 298 353.5 L 299 351 L 328 351 L 328 321.5 L 329.5 320 Z " /><path fill="rgb(230,77,77)" stroke="rgb(230,77,77)" stroke-width="1" opacity="0.996078431372549" d="M 702.5 376 L 722 376.5 L 702.5 377 L 702.5 376 Z " /><path fill="rgb(230,77,77)" stroke="rgb(230,77,77)" stroke-width="1" opacity="0.996078431372549" d="M 724.5 376 L 742 376.5 L 724.5 377 L 724.5 376 Z " /><path fill="rgb(230,77,77)" stroke="rgb(230,77,77)" stroke-width="1" opacity="0.996078431372549" d="M 759.5 376 Q 766.3 374.3 768 377.5 L 768 404 L 796.5 404 L 798 405.5 L 798 432.5 L 797 432.5 L 797 405 L 767 405 L 767 377.5 L 766.5 377 L 759.5 377 L 759.5 376 Z " /><path fill="rgb(230,77,77)" stroke="rgb(230,77,77)" stroke-width="1" opacity="0.996078431372549" d="M 710 406 L 737.5 406 L 739 407.5 L 739 433 L 767 433 L 767 459.5 Q 768.3 462.3 769.5 460 L 771.5 461 L 772.5 460 L 783.5 460 L 784.5 461 L 792.5 461 L 797 460 L 797 621.5 L 796.5 622 L 767 622 L 767 644 L 739 644 L 739 623.5 L 737.5 623 L 736.5 622 L 727.5 622 L 726.5 623 L 711.5 623 Q 709.3 622.3 710 618.5 L 711 617.5 L 711 602.5 L 709.5 601 L 682 601 L 682 577 L 652.5 577 L 652 576.5 L 652 509 L 681 509 L 681 484.5 L 682.5 483 L 710 483 L 711 471.5 L 710 469.5 L 710 467.5 L 711 462.5 L 711 433.5 L 710 432.5 L 710 406 Z " /><path fill="rgb(230,77,77)" stroke="rgb(230,77,77)" stroke-width="1" opacity="0.996078431372549" d="M 815.5 432 L 823 432.5 L 815.5 433 L 815.5 432 Z " /><path fill="rgb(230,77,77)" stroke="rgb(230,77,77)" stroke-width="1" opacity="0.996078431372549" d="M 826.5 433 L 827 508.5 L 826 508.5 L 826.5 433 Z " /><path fill="rgb(230,77,77)" stroke="rgb(230,77,77)" stroke-width="1" opacity="0.996078431372549" d="M 240 460 L 242 460.5 L 241 461.5 L 241 654 L 270 654.5 L 240 655 L 240 460 Z " /><path fill="rgb(230,77,77)" stroke="rgb(230,77,77)" stroke-width="1" opacity="0.996078431372549" d="M 849.5 508 Q 854.8 506.8 856 509.5 L 856 654.5 L 854.5 656 L 827 656 L 827 692.5 L 825.5 693 L 824.5 694 L 798 694 L 798 725.5 L 796.5 727 L 797 725.5 L 797 693 L 824.5 693 L 826 691.5 L 826 656.5 L 827.5 655 L 854.5 655 L 855 654.5 L 855 509 L 849.5 509 L 849.5 508 Z " /><path fill="rgb(230,77,77)" stroke="rgb(230,77,77)" stroke-width="1" opacity="0.996078431372549" d="M 270.5 714 L 298.5 714 L 300 715.5 L 300 748.5 L 301.5 749 L 301.5 750 L 299 749.5 L 299 715 L 270.5 715 L 270.5 714 Z " /><path fill="rgb(230,77,77)" stroke="rgb(230,77,77)" stroke-width="1" opacity="0.996078431372549" d="M 767.5 727 L 768 775.5 L 766 776.5 L 767 775.5 L 767.5 727 Z " /><path fill="rgb(230,77,77)" stroke="rgb(230,77,77)" stroke-width="1" opacity="0.996078431372549" d="M 304.5 749 L 327.5 749 L 329 750.5 L 329 776 L 357.5 776 L 357.5 777 L 328 777 L 328 750 L 304.5 750 L 304.5 749 Z " /><path fill="rgb(230,77,77)" stroke="rgb(230,77,77)" stroke-width="1" opacity="0.996078431372549" d="M 738 776 L 741 776.5 L 739 777 L 739 797.5 L 737.5 799 L 710 799 L 710 821.5 L 708.5 823 L 685.5 823 L 685.5 822 L 709 822 L 709 798 L 738 798 L 738 776 Z " /><path fill="rgb(230,77,77)" stroke="rgb(230,77,77)" stroke-width="1" opacity="0.996078431372549" d="M 358.5 799 L 386.5 799 L 388 800.5 L 388 821.5 L 389.5 822 L 389.5 823 L 387 822.5 L 387 800 L 358.5 800 L 358.5 799 Z " /><path fill="rgb(230,77,77)" stroke="rgb(230,77,77)" stroke-width="1" opacity="0.996078431372549" d="M 423.5 822 L 426 822.5 L 423.5 823 L 423.5 822 Z " /><path fill="rgb(230,77,77)" stroke="rgb(230,77,77)" stroke-width="1" opacity="0.996078431372549" d="M 681 822 L 683 822.5 L 681.5 825 L 681 822 Z " /><path fill="rgb(230,77,77)" stroke="rgb(230,77,77)" stroke-width="1" opacity="0.996078431372549" d="M 443.5 823 L 444 849 L 475 849 L 475 869.5 L 476.5 871 L 624 871 L 624.5 846 L 625 872 L 475.5 872 L 475 870.5 L 474 869.5 L 474 850 L 444.5 850 L 443 848.5 L 443.5 823 Z " /><path fill="rgb(230,77,77)" stroke="rgb(230,77,77)" stroke-width="1" opacity="0.996078431372549" d="M 681.5 834 L 682 840.5 L 681 840.5 L 681.5 834 Z " /><path fill="rgb(230,77,77)" stroke="rgb(230,77,77)" stroke-width="1" opacity="0.996078431372549" d="M 680.5 843 L 681 845 L 625 844.5 L 679.5 844 L 680.5 843 Z " /></svg>