<svg viewBox="0 0 1080 1080" version="1.1" xmlns="http://www.w3.org/2000/svg" desc="Created with imagetracer.js version 1.2.6" ><path fill="rgb(22,4,4)" stroke="rgb(22,4,4)" stroke-width="1" opacity="0.8" d="M 728.5 89 L 731 90.5 L 729.5 91 L 728.5 89 Z " /><path fill="rgb(22,4,4)" stroke="rgb(22,4,4)" stroke-width="1" opacity="0.8" d="M 609 90 L 687.5 90 L 689 91.5 L 688.5 93 L 688 91 L 610.5 91 Q 609.5 91 610 95.5 L 609 95.5 L 609 90 Z " /><path fill="rgb(22,4,4)" stroke="rgb(22,4,4)" stroke-width="1" opacity="0.8" d="M 489.5 91 L 490 125.5 L 487 127.5 L 489 125.5 L 489.5 91 Z " /><path fill="rgb(22,4,4)" stroke="rgb(22,4,4)" stroke-width="1" opacity="0.8" d="M 767.5 91 L 768 164.5 L 766.5 166 L 730 166 L 729.5 168 L 729 165 L 767 165 L 767.5 91 Z " /><path fill="rgb(22,4,4)" stroke="rgb(22,4,4)" stroke-width="1" opacity="0.8" d="M 609.5 102 L 610 124.5 L 609 124.5 L 609.5 102 Z " /><path fill="rgb(22,4,4)" stroke="rgb(22,4,4)" stroke-width="1" opacity="0.8" d="M 571.5 126 L 605 126.5 L 571.5 127 L 571.5 126 Z " /><path fill="rgb(22,4,4)" stroke="rgb(22,4,4)" stroke-width="1" opacity="0.8" d="M 529.5 127 L 570 127.5 L 529 128 L 529 166 L 490.5 166 L 489 166.5 L 490.5 165 L 528 165 L 528 128.5 L 529.5 127 Z " /><path fill="rgb(22,4,4)" stroke="rgb(22,4,4)" stroke-width="1" opacity="0.8" d="M 410.5 128 L 411 165.5 L 410 165.5 L 410.5 128 Z " /><path fill="rgb(22,4,4)" stroke="rgb(22,4,4)" stroke-width="1" opacity="0.8" d="M 371.5 167 L 409 167.5 L 371.5 168 L 371.5 167 Z " /><path fill="rgb(22,4,4)" stroke="rgb(22,4,4)" stroke-width="1" opacity="0.8" d="M 449 167 L 451 167.5 L 450 168.5 L 449.5 204 L 449 167 Z " /><path fill="rgb(22,4,4)" stroke="rgb(22,4,4)" stroke-width="1" opacity="0.8" d="M 650.5 167 L 651 241.5 L 649.5 243 L 610 243 L 609.5 358 L 609 243.5 L 610.5 242 L 650 242 L 650.5 167 Z " /><path fill="rgb(22,4,4)" stroke="rgb(22,4,4)" stroke-width="1" opacity="0.8" d="M 369.5 204 L 370 206 L 330 205.5 L 368.5 205 L 369.5 204 Z " /><path fill="rgb(22,4,4)" stroke="rgb(22,4,4)" stroke-width="1" opacity="0.8" d="M 411.5 204 L 412 205.5 L 411 205.5 L 411.5 204 Z " /><path fill="rgb(22,4,4)" stroke="rgb(22,4,4)" stroke-width="1" opacity="0.8" d="M 410.5 242 L 409.5 244 L 370 244 L 370 280.5 L 368 281.5 L 369 280.5 L 369 243 L 409.5 243 L 410.5 242 Z " /><path fill="rgb(22,4,4)" stroke="rgb(22,4,4)" stroke-width="1" opacity="0.8" d="M 692.5 242 L 693 244 L 689 244.5 L 689 394.5 L 690.5 396 L 728 396.5 L 690.5 397 L 688 394.5 L 688 243 L 692.5 242 Z " /><path fill="rgb(22,4,4)" stroke="rgb(22,4,4)" stroke-width="1" opacity="0.8" d="M 289.5 243 L 330 243.5 L 289.5 244 L 289.5 243 Z " /><path fill="rgb(22,4,4)" stroke="rgb(22,4,4)" stroke-width="1" opacity="0.8" d="M 249.5 282 L 250 323 L 248 322.5 L 249 321.5 L 249.5 282 Z " /><path fill="rgb(22,4,4)" stroke="rgb(22,4,4)" stroke-width="1" opacity="0.8" d="M 289.5 321 L 289 322.5 L 288.5 396 L 288 322.5 L 289.5 321 Z " /><path fill="rgb(22,4,4)" stroke="rgb(22,4,4)" stroke-width="1" opacity="0.8" d="M 208 324 L 210 324.5 L 209 325.5 L 209 395.5 L 207.5 397 L 169 396.5 L 208 396 L 208 324 Z " /><path fill="rgb(22,4,4)" stroke="rgb(22,4,4)" stroke-width="1" opacity="0.8" d="M 729.5 358 L 846.5 358 L 847 358.5 L 847 394.5 L 848.5 396 L 886.5 396 L 888 397.5 L 888 434 L 926.5 434 L 926.5 435 L 887 435 L 887 397 L 848.5 397 L 846 394.5 L 846 359 L 730.5 359 L 728.5 360 L 729.5 358 Z " /><path fill="rgb(22,4,4)" stroke="rgb(22,4,4)" stroke-width="1" opacity="0.8" d="M 570.5 359 L 575 359.5 L 570.5 360 L 570.5 359 Z " /><path fill="rgb(22,4,4)" stroke="rgb(22,4,4)" stroke-width="1" opacity="0.8" d="M 583.5 359 L 608 359.5 L 583.5 360 L 583.5 359 Z " /><path fill="rgb(22,4,4)" stroke="rgb(22,4,4)" stroke-width="1" opacity="0.8" d="M 728.5 387 L 729 388.5 L 728 388.5 L 728.5 387 Z " /><path fill="rgb(22,4,4)" stroke="rgb(22,4,4)" stroke-width="1" opacity="0.8" d="M 248.5 396 L 252 396.5 L 248.5 397 L 248.5 396 Z " /><path fill="rgb(22,4,4)" stroke="rgb(22,4,4)" stroke-width="1" opacity="0.8" d="M 769.5 397 L 809 397 L 809 434 L 847 434 L 847 471 L 876.5 471 L 876.5 472 L 847.5 472 L 846 470.5 L 846 435 L 809.5 435 L 808 433.5 L 808 398 L 769 398 L 769 420.5 L 768 420.5 L 768 398.5 L 769.5 397 Z " /><path fill="rgb(22,4,4)" stroke="rgb(22,4,4)" stroke-width="1" opacity="0.8" d="M 768.5 428 L 770 434.5 L 768 433.5 L 768.5 428 Z " /><path fill="rgb(22,4,4)" stroke="rgb(22,4,4)" stroke-width="1" opacity="0.8" d="M 208.5 469 L 248 469.5 L 208 470 L 207.5 725 L 207 470.5 L 208.5 469 Z " /><path fill="rgb(22,4,4)" stroke="rgb(22,4,4)" stroke-width="1" opacity="0.8" d="M 129.5 471 L 169 471.5 L 129.5 472 L 129.5 471 Z " /><path fill="rgb(22,4,4)" stroke="rgb(22,4,4)" stroke-width="1" opacity="0.8" d="M 880.5 471 L 887.5 471 L 888 471.5 L 888 691.5 L 886.5 693 L 848.5 693 L 848.5 692 L 886.5 692 L 887 691.5 L 887 472 L 880.5 472 L 880.5 471 Z " /><path fill="rgb(22,4,4)" stroke="rgb(22,4,4)" stroke-width="1" opacity="0.8" d="M 768.5 501 L 769 503 L 730 503 L 730 536.5 L 729 536.5 L 729 502 L 767.5 502 L 768.5 501 Z " /><path fill="rgb(22,4,4)" stroke="rgb(22,4,4)" stroke-width="1" opacity="0.8" d="M 689.5 538 L 690 543.5 L 689 543.5 L 689.5 538 Z " /><path fill="rgb(22,4,4)" stroke="rgb(22,4,4)" stroke-width="1" opacity="0.8" d="M 929.5 538 L 967 538.5 L 929.5 539 L 929.5 538 Z " /><path fill="rgb(22,4,4)" stroke="rgb(22,4,4)" stroke-width="1" opacity="0.8" d="M 570.5 569 L 610 569 L 610 631.5 L 613.5 632 L 613.5 633 Q 609.8 633.8 609 631.5 L 609 570 L 570.5 570 L 570.5 569 Z " /><path fill="rgb(22,4,4)" stroke="rgb(22,4,4)" stroke-width="1" opacity="0.8" d="M 689.5 570 L 690 630 L 728.5 630 L 731 632.5 L 731 663 L 766.5 663 L 766.5 664 L 730 664 L 730 632.5 L 728.5 631 L 689 631 L 689.5 570 Z " /><path fill="rgb(22,4,4)" stroke="rgb(22,4,4)" stroke-width="1" opacity="0.8" d="M 638.5 632 L 648.5 632 L 651 634.5 L 651 692.5 L 651.5 693 L 658.5 693 L 658.5 694 Q 651.8 695.8 650 692.5 L 650 634.5 L 648.5 633 L 638.5 633 L 638.5 632 Z " /><path fill="rgb(22,4,4)" stroke="rgb(22,4,4)" stroke-width="1" opacity="0.8" d="M 768 679 Q 771 677.8 770 681.5 L 769 682.5 L 768.5 692 L 768 679 Z " /><path fill="rgb(22,4,4)" stroke="rgb(22,4,4)" stroke-width="1" opacity="0.8" d="M 674.5 693 L 685 693.5 L 674.5 694 L 674.5 693 Z " /><path fill="rgb(22,4,4)" stroke="rgb(22,4,4)" stroke-width="1" opacity="0.8" d="M 770.5 693 L 807.5 693 L 809 694.5 L 809 721.5 L 810 722.5 L 808 721.5 L 808 694 L 770.5 694 L 770.5 693 Z " /><path fill="rgb(22,4,4)" stroke="rgb(22,4,4)" stroke-width="1" opacity="0.8" d="M 846.5 701 L 847 720.5 L 846 720.5 L 846.5 701 Z " /><path fill="rgb(22,4,4)" stroke="rgb(22,4,4)" stroke-width="1" opacity="0.8" d="M 690.5 722 L 728 722.5 L 690.5 723 L 690.5 722 Z " /><path fill="rgb(22,4,4)" stroke="rgb(22,4,4)" stroke-width="1" opacity="0.8" d="M 129.5 735 L 169 735.5 L 129.5 736 L 129.5 735 Z " /><path fill="rgb(22,4,4)" stroke="rgb(22,4,4)" stroke-width="1" opacity="0.8" d="M 767.5 752 L 768 833 L 730.5 833 L 729.5 834 L 729 832 L 767 832 L 767.5 752 Z " /><path fill="rgb(22,4,4)" stroke="rgb(22,4,4)" stroke-width="1" opacity="0.8" d="M 927.5 754 L 928 763.5 L 927 763.5 L 927.5 754 Z " /><path fill="rgb(22,4,4)" stroke="rgb(22,4,4)" stroke-width="1" opacity="0.8" d="M 927.5 774 L 928 780.5 L 927 780.5 L 927.5 774 Z " /><path fill="rgb(22,4,4)" stroke="rgb(22,4,4)" stroke-width="1" opacity="0.8" d="M 288.5 785 L 289 824.5 L 288 824.5 L 288.5 785 Z " /><path fill="rgb(22,4,4)" stroke="rgb(22,4,4)" stroke-width="1" opacity="0.8" d="M 925.5 787 L 928 787.5 L 925.5 789 L 888 789 L 888 834.5 L 886.5 836 L 887 834.5 L 887 789.5 L 888.5 788 L 924.5 788 L 925.5 787 Z " /><path fill="rgb(22,4,4)" stroke="rgb(22,4,4)" stroke-width="1" opacity="0.8" d="M 169.5 817 L 171.5 818 L 209 818.5 L 170.5 819 L 169.5 817 Z " /><path fill="rgb(22,4,4)" stroke="rgb(22,4,4)" stroke-width="1" opacity="0.8" d="M 328.5 826 L 329 861.5 L 330 862.5 L 328 863 L 328.5 826 Z " /><path fill="rgb(22,4,4)" stroke="rgb(22,4,4)" stroke-width="1" opacity="0.8" d="M 846.5 835 L 847 901.5 L 846 901.5 L 846.5 835 Z " /><path fill="rgb(22,4,4)" stroke="rgb(22,4,4)" stroke-width="1" opacity="0.8" d="M 337.5 863 L 345 863.5 L 337.5 864 L 337.5 863 Z " /><path fill="rgb(22,4,4)" stroke="rgb(22,4,4)" stroke-width="1" opacity="0.8" d="M 355.5 863 L 369 863.5 L 355.5 864 L 355.5 863 Z " /><path fill="rgb(22,4,4)" stroke="rgb(22,4,4)" stroke-width="1" opacity="0.8" d="M 369.5 865 L 370 900.5 L 369 900.5 L 369.5 865 Z " /><path fill="rgb(22,4,4)" stroke="rgb(22,4,4)" stroke-width="1" opacity="0.8" d="M 690.5 865 L 728 865.5 L 690.5 866 L 688.5 868 L 690.5 865 Z " /><path fill="rgb(22,4,4)" stroke="rgb(22,4,4)" stroke-width="1" opacity="0.8" d="M 210.5 866 L 250 866 L 250 901.5 L 249 901.5 L 249 867 L 210.5 867 L 210.5 866 Z " /><path fill="rgb(22,4,4)" stroke="rgb(22,4,4)" stroke-width="1" opacity="0.8" d="M 688.5 873 L 689 900.5 L 688 900.5 L 688.5 873 Z " /><path fill="rgb(22,4,4)" stroke="rgb(22,4,4)" stroke-width="1" opacity="0.8" d="M 411.5 902 L 412 933.5 L 413 934.5 L 411 935 L 411.5 902 Z " /><path fill="rgb(22,4,4)" stroke="rgb(22,4,4)" stroke-width="1" opacity="0.8" d="M 768.5 932 L 768 933.5 L 768 963.5 L 766.5 965 L 729 964.5 L 767 964 L 767 933.5 L 768.5 932 Z " /><path fill="rgb(22,4,4)" stroke="rgb(22,4,4)" stroke-width="1" opacity="0.8" d="M 290.5 933 L 329 933 L 329 963.5 L 330 965.5 L 328 964.5 L 328 934 L 290.5 934 L 290.5 933 Z " /><path fill="rgb(22,4,4)" stroke="rgb(22,4,4)" stroke-width="1" opacity="0.8" d="M 450.5 933 L 649 933.5 L 450.5 934 L 448.5 935 L 448.5 934 L 450.5 933 Z " /><path fill="rgb(22,4,4)" stroke="rgb(22,4,4)" stroke-width="1" opacity="0.8" d="M 415.5 934 L 420 934.5 L 415.5 935 L 415.5 934 Z " /><path fill="rgb(22,4,4)" stroke="rgb(22,4,4)" stroke-width="1" opacity="0.8" d="M 430.5 934 L 444 934.5 L 430.5 935 L 430.5 934 Z " /><path fill="rgb(22,4,4)" stroke="rgb(22,4,4)" stroke-width="1" opacity="0.8" d="M 406.5 966 L 407 1001 L 449 1001 L 449 1031 L 461.5 1031 Q 462.7 1033.3 467.5 1032 L 468.5 1031 L 645.5 1031 L 650.5 1032 L 652.5 1031 L 652.5 1032 L 646.5 1033 L 645.5 1032 L 469.5 1032 L 468.5 1033 L 460.5 1033 L 459.5 1032 L 449.5 1032 L 448 1030.5 L 448 1002 L 407.5 1002 L 406 1000.5 L 406.5 966 Z " /><path fill="rgb(22,4,4)" stroke="rgb(22,4,4)" stroke-width="1" opacity="0.8" d="M 653.5 994 L 729 994.5 L 653.5 995 L 653.5 994 Z " /><path fill="rgb(253,227,225)" stroke="rgb(253,227,225)" stroke-width="1" opacity="1" d="M 571.5 128 L 648 128 L 648 162.5 L 646.5 164 L 572 164 L 572 129.5 L 571.5 128 Z " /><path fill="rgb(253,227,225)" stroke="rgb(253,227,225)" stroke-width="1" opacity="1" d="M 491 168 L 567.5 168 Q 568.5 168 568 172.5 L 569 173.5 L 569 182.5 L 568 186.5 L 569 187.5 L 569 202 L 528.5 202 L 527 203.5 L 527 239.5 L 526.5 240 L 515.5 240 L 514.5 241 L 502.5 241 L 500.5 240 L 499.5 241 Q 490.6 239.8 487 242 L 487 278.5 L 485.5 279 L 484.5 280 L 474.5 280 L 470.5 279 L 469.5 280 L 448 280 L 447 282.5 L 447 316.5 L 445.5 318 L 410.5 318 L 408 320.5 L 408 357 L 369.5 357 L 367 358 L 366.5 362 L 366 359 Q 363 357.8 364 361.5 L 358.5 368 L 353 370 Q 354.4 374 347.5 372 L 339 379.5 L 339 387 Q 336 386 337 389 L 334.5 389 L 333 387.5 L 332.5 364 L 332 394.5 L 330.5 398 L 330 322 L 370 322 L 370 283.5 Q 370.3 282.3 376.5 283 L 377.5 284 L 409.5 284 L 412 281.5 L 412 245.5 L 413.5 244 L 444.5 244 L 445.5 245 L 447.5 245 Q 451.5 245.5 452 242.5 L 452 206 L 491 206 L 491 168 Z M 341 323 L 341 324 L 346 324 L 341 323 Z M 353 323 L 353 324 L 362 324 L 353 323 Z M 396 355 L 396 356 L 397 356 L 396 355 Z " /><path fill="rgb(253,227,225)" stroke="rgb(253,227,225)" stroke-width="1" opacity="1" d="M 491 322 L 527 322 L 527 396 L 488.5 396 L 487 397.5 L 487 433 L 452 433 L 452 376.5 Q 454.8 374.8 453 368.5 L 452 366.5 L 452 364.5 L 452.5 361 L 489.5 361 L 491 359.5 L 491 322 Z " /><path fill="rgb(253,227,225)" stroke="rgb(253,227,225)" stroke-width="1" opacity="1" d="M 331.5 406 L 334 406.5 L 331.5 407 L 331.5 406 Z " /><path fill="rgb(253,227,225)" stroke="rgb(253,227,225)" stroke-width="1" opacity="1" d="M 771 435 L 806 435.5 L 776 436.5 Q 778.5 438 777 443.5 L 775.5 443 Q 773.3 442.3 774 444.5 L 773 444.5 L 772.5 441 L 771.5 489 L 771 435 Z " /><path fill="rgb(253,227,225)" stroke="rgb(253,227,225)" stroke-width="1" opacity="1" d="M 771.5 499 L 772 502.5 L 771 502.5 L 771.5 499 Z " /><path fill="rgb(253,227,225)" stroke="rgb(253,227,225)" stroke-width="1" opacity="1" d="M 769.5 504 L 770 509.5 L 769 509.5 L 769.5 504 Z " /><path fill="rgb(253,227,225)" stroke="rgb(253,227,225)" stroke-width="1" opacity="1" d="M 769.5 520 L 770 531.5 L 771 535 L 769 534.5 L 769.5 520 Z " /><path fill="rgb(0,0,0)" stroke="rgb(0,0,0)" stroke-width="1" opacity="0" d="M 0 0 L 1080 0 L 1080 1080 L 0 1080 L 0 0 Z M 572 54 L 570 56 L 570 90 L 569 91 L 489 91 L 489 126 L 487 128 L 410 128 L 410 166 L 409 167 L 371 167 L 371 204 L 369 205 L 330 205 L 330 243 L 303 243 L 302 242 Q 295 240 294 243 Q 289 242 289 244 L 289 281 L 288 282 L 249 282 L 249 322 L 248 323 L 248 324 L 208 324 L 208 396 L 169 396 L 169 471 L 129 471 L 129 730 L 128 731 Q 127 736 129 736 L 169 736 L 169 818 L 171 819 L 210 819 L 210 867 L 249 867 L 249 902 L 289 902 L 289 933 L 291 934 L 328 934 L 328 965 L 330 966 L 406 967 L 404 967 Q 402 972 406 971 L 406 1001 L 407 1004 L 435 1004 L 435 1002 Q 441 1001 443 1004 L 448 1003 L 448 1031 L 450 1032 L 460 1032 L 461 1033 L 469 1033 L 470 1032 L 646 1032 L 647 1033 L 652 1032 L 653 1032 L 653 995 L 729 995 L 729 995 L 729 965 L 767 965 L 768 964 L 768 934 L 770 932 L 807 932 L 807 905 L 810 902 L 847 902 L 847 835 L 886 835 Q 887 837 888 835 L 888 789 L 928 789 L 928 755 L 927 754 L 928 739 L 930 737 L 967 737 L 968 736 L 968 716 L 967 715 L 968 713 L 968 684 L 967 683 L 968 680 L 968 671 L 967 670 L 967 539 L 967 538 L 927 538 L 927 435 L 927 434 L 888 434 L 888 398 L 887 396 L 849 396 L 847 395 L 847 358 L 729 358 L 728 359 L 728 396 L 691 396 L 689 395 L 689 245 L 693 244 L 694 242 L 729 242 L 729 169 L 732 166 L 767 166 L 768 165 L 768 91 L 732 91 L 731 90 L 728 89 L 728 55 L 728 54 L 572 54 Z M 210 322 L 210 323 L 247 323 L 210 322 Z " /><path fill="rgb(0,0,0)" stroke="rgb(0,0,0)" stroke-width="1" opacity="1" d="M 572.5 54 L 727.5 54 L 728 54.5 L 728 89.5 L 729.5 91 L 767 91 L 767 165 L 729 165 L 729 242 L 692.5 242 L 688 243 L 688 394.5 L 690.5 397 L 727.5 397 L 728 396.5 L 728 389.5 L 729 387.5 L 728 386.5 L 728 360 L 730.5 359 L 846 359 L 846 394.5 L 848.5 397 L 887 397 L 887 435 L 927 435 L 927 537.5 L 928.5 538 L 929.5 539 L 967 539 L 967 736.5 L 966.5 737 L 928.5 737 L 928 740.5 L 927 741.5 L 927 763.5 L 928 764.5 L 928 773.5 Q 925.5 775 927 780.5 L 928 787 L 924.5 788 L 888.5 788 L 887 789.5 L 887 835 L 846 835 L 846 902 L 808.5 902 L 807 903.5 L 807 932 L 768.5 932 L 767 933.5 L 767 964 L 729 964 L 729 994 L 653 994 L 653 1030.5 L 651.5 1031 L 646.5 1032 L 645.5 1031 L 468.5 1031 Q 467.3 1033.3 462.5 1032 L 461.5 1031 L 449 1031 L 449 1001 L 407 1001 L 407 966 L 330.5 966 L 330 964.5 L 329 963.5 L 329 933 L 289 933 L 289 902 L 250 902 L 250 866 L 210 866 L 210 819.5 L 208.5 818 L 171.5 818 L 169 817 L 169 735 L 129.5 735 L 129 734.5 L 129 472 L 169 472 L 169 397 L 207.5 397 L 209 395.5 L 209 325.5 L 210.5 324 L 247.5 324 L 250 323 L 250 282 L 289 282 L 289 244 L 330 244 L 330 206 L 369.5 206 L 370 204.5 L 371 203.5 L 371 168 L 409 168 Q 408.3 164.9 411 165.5 L 411 128 L 487.5 128 L 490 125.5 L 490 91 L 570 91 L 570 56.5 L 572.5 54 Z M 609 90 L 609 126 L 530 127 L 528 129 L 528 165 L 491 165 L 489 167 L 449 167 L 449 204 L 411 204 L 412 207 L 412 242 L 410 243 L 369 243 L 369 281 L 368 282 L 368 283 L 330 283 L 330 320 L 328 321 L 290 321 L 288 323 L 288 396 L 248 396 L 248 469 L 209 469 L 209 471 L 207 471 L 207 725 L 208 725 L 247 725 L 248 728 L 248 785 L 288 785 L 288 825 L 290 826 L 328 826 L 328 863 L 337 863 L 338 864 Q 344 866 346 863 L 355 863 L 356 864 L 369 864 L 369 901 L 412 902 L 411 903 L 411 935 L 450 935 L 451 934 L 649 934 L 649 934 L 649 903 L 651 901 L 689 901 L 689 874 L 688 873 Q 687 867 691 866 L 728 866 L 728 834 L 731 833 L 768 833 L 768 752 L 730 752 L 728 751 L 728 722 L 688 722 L 688 694 L 685 693 L 675 693 L 674 694 L 660 694 L 659 693 L 651 693 L 651 635 L 649 632 Q 639 630 636 634 Q 631 635 630 633 Q 623 631 622 634 Q 616 635 614 632 L 610 632 L 610 569 L 570 569 L 570 361 Q 570 360 575 360 L 574 359 L 584 358 L 584 360 L 608 360 L 606 359 L 606 358 Q 610 358 610 358 L 610 243 L 650 243 L 651 242 L 651 168 L 650 167 L 689 166 L 688 165 L 688 94 L 689 92 L 688 90 L 609 90 Z M 770 397 L 768 399 L 768 421 L 769 422 Q 771 427 768 429 Q 767 434 770 436 L 770 501 L 768 502 L 729 502 L 729 538 L 689 538 L 690 545 L 690 570 L 689 571 L 689 631 L 729 631 L 730 633 L 730 664 L 767 664 L 769 663 L 770 666 L 770 679 L 768 679 L 768 692 Q 771 691 770 694 L 808 694 L 808 722 L 810 723 L 811 722 L 846 722 L 847 721 L 847 702 L 846 701 Q 844 694 848 692 L 849 693 L 887 693 L 888 692 L 888 471 L 881 471 L 880 473 Q 876 474 877 471 L 847 471 L 847 434 L 809 434 L 809 397 L 770 397 Z M 689 693 L 689 694 L 689 693 Z " /><path fill="rgb(0,0,0)" stroke="rgb(0,0,0)" stroke-width="1" opacity="1" d="M 233.5 470 L 241 470.5 L 233.5 471 L 233.5 470 Z " /><path fill="rgb(223,63,62)" stroke="rgb(223,63,62)" stroke-width="1" opacity="0.9882352941176471" d="M 612.5 91 L 623 91.5 L 612.5 92 L 612.5 91 Z " /><path fill="rgb(223,63,62)" stroke="rgb(223,63,62)" stroke-width="1" opacity="0.9882352941176471" d="M 626.5 91 L 653 91.5 L 626.5 92 L 626.5 91 Z " /><path fill="rgb(223,63,62)" stroke="rgb(223,63,62)" stroke-width="1" opacity="0.9882352941176471" d="M 658.5 91 L 671 91.5 L 658.5 92 L 658.5 91 Z " /><path fill="rgb(223,63,62)" stroke="rgb(223,63,62)" stroke-width="1" opacity="0.9882352941176471" d="M 675.5 91 L 687 91.5 L 675.5 92 L 675.5 91 Z " /><path fill="rgb(223,63,62)" stroke="rgb(223,63,62)" stroke-width="1" opacity="0.9882352941176471" d="M 610.5 92 L 611 94.5 L 610 94.5 L 610.5 92 Z " /><path fill="rgb(223,63,62)" stroke="rgb(223,63,62)" stroke-width="1" opacity="0.9882352941176471" d="M 610.5 103 L 611 124.5 L 610 124.5 L 610.5 103 Z " /><path fill="rgb(223,63,62)" stroke="rgb(223,63,62)" stroke-width="1" opacity="0.9882352941176471" d="M 605.5 126 L 610 126.5 L 605.5 127 L 605.5 126 Z " /><path fill="rgb(223,63,62)" stroke="rgb(223,63,62)" stroke-width="1" opacity="0.9882352941176471" d="M 530.5 128 L 530 129.5 L 529.5 166 L 529 129.5 L 530.5 128 Z " /><path fill="rgb(223,63,62)" stroke="rgb(223,63,62)" stroke-width="1" opacity="0.9882352941176471" d="M 525.5 166 L 527 166.5 L 525.5 167 L 525.5 166 Z " /><path fill="rgb(223,63,62)" stroke="rgb(223,63,62)" stroke-width="1" opacity="0.9882352941176471" d="M 649.5 166 L 649 167.5 L 648.5 242 L 648 167.5 L 649.5 166 Z " /><path fill="rgb(223,63,62)" stroke="rgb(223,63,62)" stroke-width="1" opacity="0.9882352941176471" d="M 451.5 168 L 452 202.5 L 451 202.5 L 451.5 168 Z " /><path fill="rgb(223,63,62)" stroke="rgb(223,63,62)" stroke-width="1" opacity="0.9882352941176471" d="M 412.5 205 L 449 205.5 L 412.5 206 L 412.5 205 Z " /><path fill="rgb(223,63,62)" stroke="rgb(223,63,62)" stroke-width="1" opacity="0.9882352941176471" d="M 411.5 242 L 409.5 245 L 408 244.5 L 411.5 242 Z " /><path fill="rgb(223,63,62)" stroke="rgb(223,63,62)" stroke-width="1" opacity="0.9882352941176471" d="M 290.5 322 L 291 357.5 L 290 357.5 L 290.5 322 Z " /><path fill="rgb(223,63,62)" stroke="rgb(223,63,62)" stroke-width="1" opacity="0.9882352941176471" d="M 570.5 357 L 609 357.5 L 570.5 358 L 569.5 359 L 570.5 357 Z " /><path fill="rgb(223,63,62)" stroke="rgb(223,63,62)" stroke-width="1" opacity="0.9882352941176471" d="M 289.5 359 L 290 379.5 L 291 381.5 L 290 381.5 L 289 379.5 L 289.5 359 Z " /><path fill="rgb(223,63,62)" stroke="rgb(223,63,62)" stroke-width="1" opacity="0.9882352941176471" d="M 289.5 383 L 290 395.5 L 289 395.5 L 289.5 383 Z " /><path fill="rgb(223,63,62)" stroke="rgb(223,63,62)" stroke-width="1" opacity="0.9882352941176471" d="M 250.5 397 L 255 397.5 L 250.5 398 L 250.5 397 Z " /><path fill="rgb(223,63,62)" stroke="rgb(223,63,62)" stroke-width="1" opacity="0.9882352941176471" d="M 769 398 L 784 398.5 L 770 399 L 770 432.5 L 771 434.5 L 770 434.5 L 769 432.5 L 769 398 Z " /><path fill="rgb(223,63,62)" stroke="rgb(223,63,62)" stroke-width="1" opacity="0.9882352941176471" d="M 807.5 403 L 808 421.5 L 807 421.5 L 807.5 403 Z " /><path fill="rgb(223,63,62)" stroke="rgb(223,63,62)" stroke-width="1" opacity="0.9882352941176471" d="M 807.5 424 L 808 431.5 L 807 431.5 L 807.5 424 Z " /><path fill="rgb(223,63,62)" stroke="rgb(223,63,62)" stroke-width="1" opacity="0.9882352941176471" d="M 821.5 435 L 842 435.5 L 821.5 436 L 821.5 435 Z " /><path fill="rgb(223,63,62)" stroke="rgb(223,63,62)" stroke-width="1" opacity="0.9882352941176471" d="M 248.5 449 L 249 453.5 L 248 453.5 L 248.5 449 Z " /><path fill="rgb(223,63,62)" stroke="rgb(223,63,62)" stroke-width="1" opacity="0.9882352941176471" d="M 248.5 456 L 249 457.5 L 248 457.5 L 248.5 456 Z " /><path fill="rgb(223,63,62)" stroke="rgb(223,63,62)" stroke-width="1" opacity="0.9882352941176471" d="M 248.5 464 L 249 470.5 L 245.5 472 L 245.5 471 L 248 471 L 248.5 464 Z " /><path fill="rgb(223,63,62)" stroke="rgb(223,63,62)" stroke-width="1" opacity="0.9882352941176471" d="M 209.5 471 L 213 471.5 L 209.5 472 L 209.5 471 Z " /><path fill="rgb(223,63,62)" stroke="rgb(223,63,62)" stroke-width="1" opacity="0.9882352941176471" d="M 846.5 472 L 847 536.5 L 845.5 538 L 808 538 L 808 551.5 L 809 554.5 L 808 555.5 L 808 596.5 Q 810.3 597.8 807.5 599 L 769.5 599 L 768 600.5 L 768 632 L 732 632 L 732.5 630 L 767 630 L 767 599.5 L 768.5 599 L 769.5 598 L 808 597.5 L 807 596.5 L 807 555.5 L 808 552.5 L 807 551.5 L 807 538.5 L 809.5 536 L 846 536 L 846.5 472 Z " /><path fill="rgb(223,63,62)" stroke="rgb(223,63,62)" stroke-width="1" opacity="0.9882352941176471" d="M 770.5 497 L 771 500.5 L 769 501.5 L 770.5 497 Z " /><path fill="rgb(223,63,62)" stroke="rgb(223,63,62)" stroke-width="1" opacity="0.9882352941176471" d="M 731.5 503 L 767 503.5 L 731 504 L 731 537.5 L 729.5 539 L 728 538.5 L 730 538 L 730 504.5 L 731.5 503 Z " /><path fill="rgb(223,63,62)" stroke="rgb(223,63,62)" stroke-width="1" opacity="0.9882352941176471" d="M 569.5 569 L 570.5 570 L 608 570.5 L 569 571 L 569.5 569 Z " /><path fill="rgb(223,63,62)" stroke="rgb(223,63,62)" stroke-width="1" opacity="0.9882352941176471" d="M 248.5 596 L 289 596 Q 288.3 599.1 291 598.5 L 291 663 L 325.5 663 L 327.5 663 Q 329.8 662.3 329 664.5 L 330 665.5 L 330 716 L 333 717.5 L 329 718 L 329 665.5 L 326.5 663 L 325.5 664 L 289 664 L 289 598 L 247 598 L 247 691.5 L 248.5 692 L 249.5 693 L 287.5 693 L 289 694.5 L 289 748 L 327.5 748 L 329 749.5 L 329 810.5 L 330.5 812 L 369 812 L 369 827.5 Q 370.2 830.3 371.5 828 L 408.5 828 L 410 829.5 L 409.5 832 L 409 829 L 371.5 829 L 369.5 830 L 368 828.5 L 368 813 L 330.5 813 L 328 810.5 L 328 750 L 289.5 750 L 287 747.5 L 287 694 L 248.5 694 L 246 691.5 L 246 598.5 L 248.5 596 Z " /><path fill="rgb(223,63,62)" stroke="rgb(223,63,62)" stroke-width="1" opacity="0.9882352941176471" d="M 690.5 599 L 728.5 599 L 730 600.5 L 730 629.5 L 731 630.5 L 729 629.5 L 729 600 L 690.5 600 L 690.5 599 Z " /><path fill="rgb(223,63,62)" stroke="rgb(223,63,62)" stroke-width="1" opacity="0.9882352941176471" d="M 648.5 634 L 649 693.5 L 648 693.5 L 648.5 634 Z " /><path fill="rgb(223,63,62)" stroke="rgb(223,63,62)" stroke-width="1" opacity="0.9882352941176471" d="M 336.5 716 L 368 716 Q 367.3 719.1 370 718.5 L 370 749 L 408.5 749 Q 413 751 409.5 753 L 407.5 750 L 369.5 750 L 368 748.5 L 368 721.5 L 369 719.5 L 367.5 718 L 335 717.5 L 336.5 716 Z " /><path fill="rgb(223,63,62)" stroke="rgb(223,63,62)" stroke-width="1" opacity="0.9882352941176471" d="M 247.5 724 L 250 726.5 L 250 782.5 L 251 783.5 L 249 784 L 249 726.5 L 247.5 724 Z " /><path fill="rgb(223,63,62)" stroke="rgb(223,63,62)" stroke-width="1" opacity="0.9882352941176471" d="M 727.5 724 L 728 749.5 L 727 752 L 690.5 752 L 689 753.5 L 689 784 L 651.5 784 L 649 785 L 649 816.5 L 648.5 817 L 490 817 L 490 787.5 L 489 785 L 409 784.5 L 488.5 784 L 491 786.5 L 491 816 L 647.5 816 L 648 815.5 L 648 788.5 L 647 786.5 L 650.5 783 L 688 783 L 688 752.5 L 690.5 750 L 727 750 L 727.5 724 Z " /><path fill="rgb(223,63,62)" stroke="rgb(223,63,62)" stroke-width="1" opacity="0.9882352941176471" d="M 728 754 L 767 754.5 L 730 755 L 730 783 L 765.5 783 L 767 782.5 L 765.5 784 L 729.5 784 L 728 782.5 L 728 754 Z " /><path fill="rgb(223,63,62)" stroke="rgb(223,63,62)" stroke-width="1" opacity="0.9882352941176471" d="M 289.5 785 L 290 824.5 L 289 824.5 L 289.5 785 Z " /><path fill="rgb(223,63,62)" stroke="rgb(223,63,62)" stroke-width="1" opacity="0.9882352941176471" d="M 689 833 L 727 833.5 L 690 834 L 690 864 L 726.5 864 L 726.5 865 L 690.5 865 L 689 863.5 L 689 833 Z " /><path fill="rgb(223,63,62)" stroke="rgb(223,63,62)" stroke-width="1" opacity="0.9882352941176471" d="M 329.5 838 L 330 860.5 L 329 860.5 L 329.5 838 Z " /><path fill="rgb(223,63,62)" stroke="rgb(223,63,62)" stroke-width="1" opacity="0.9882352941176471" d="M 409.5 840 L 410 848.5 L 409 848.5 L 409.5 840 Z " /><path fill="rgb(223,63,62)" stroke="rgb(223,63,62)" stroke-width="1" opacity="0.9882352941176471" d="M 408.5 850 L 409 855.5 L 408 855.5 L 408.5 850 Z " /><path fill="rgb(223,63,62)" stroke="rgb(223,63,62)" stroke-width="1" opacity="0.9882352941176471" d="M 409.5 858 L 410 868 L 449 868 L 449 899.5 L 451.5 902 L 648 902 L 647.5 904 L 452.5 904 L 452 904.5 L 452 932.5 L 450 933 L 450 902 L 412.5 902 L 412 900 L 448 900 L 448 870 L 410.5 870 L 410 868.5 L 409 867.5 L 409.5 858 Z " /><path fill="rgb(223,63,62)" stroke="rgb(223,63,62)" stroke-width="1" opacity="0.9882352941176471" d="M 649 868 L 687.5 868 L 688 870 L 651 870 L 651 899.5 L 649 900 L 649 868 Z " /><path fill="rgb(248,175,173)" stroke="rgb(248,175,173)" stroke-width="1" opacity="0.9725490196078431" d="M 571.5 127 L 648.5 127 L 650 128.5 L 650 164.5 L 648.5 166 L 570.5 166 L 570 166.5 L 570 203 L 537.5 203 L 536.5 204 L 529 204 L 529 241.5 L 527 242 L 528 239.5 L 528 203 L 530.5 202 L 569 202 L 569 167 L 527.5 167 L 527.5 166 L 569.5 166 L 570 164.5 L 571.5 165 L 647.5 165 L 649 163.5 L 649 128 L 571 128 L 570.5 132 L 570 128.5 L 571.5 127 Z " /><path fill="rgb(248,175,173)" stroke="rgb(248,175,173)" stroke-width="1" opacity="0.9725490196078431" d="M 491.5 166 L 525 166.5 L 491 167 L 491 203.5 L 489.5 205 L 452.5 205 L 451 206.5 L 451 241.5 L 450 244 L 412.5 244 Q 411.4 244.1 412 249.5 L 411 250.5 L 411 282 L 409 281.5 L 410 280.5 L 410 245.5 L 412.5 242 L 450 242 L 450 205.5 L 451.5 204 L 488.5 204 L 490 202.5 L 490 167.5 L 491.5 166 Z " /><path fill="rgb(248,175,173)" stroke="rgb(248,175,173)" stroke-width="1" opacity="0.9725490196078431" d="M 294.5 242 L 302 242.5 L 294.5 243 L 294.5 242 Z " /><path fill="rgb(248,175,173)" stroke="rgb(248,175,173)" stroke-width="1" opacity="0.9725490196078431" d="M 488 242 L 490 242.5 L 489 243.5 L 489 279.5 L 488 282 L 449 282 L 449 318.5 L 447.5 320 L 410 320 L 409.5 358 L 409 320.5 L 410.5 319 L 448 319 L 448 282.5 L 449.5 281 L 486.5 281 L 488 279.5 L 488 242 Z " /><path fill="rgb(248,175,173)" stroke="rgb(248,175,173)" stroke-width="1" opacity="0.9725490196078431" d="M 369.5 282 L 370 321 L 368 320.5 L 369 319.5 L 369.5 282 Z " /><path fill="rgb(248,175,173)" stroke="rgb(248,175,173)" stroke-width="1" opacity="0.9725490196078431" d="M 491.5 320 L 526.5 320 L 529 321 L 529 397 L 495.5 397 L 489 398 L 489 433.5 L 487.5 435 L 452.5 435 L 451 433.5 L 451 360.5 L 452.5 359 L 489 359 L 489 322.5 L 491.5 320 Z M 491 321 L 491 332 L 490 333 L 490 360 L 452 360 L 452 434 L 488 434 L 488 398 L 490 396 L 528 396 L 528 323 L 527 321 L 491 321 Z " /><path fill="rgb(248,175,173)" stroke="rgb(248,175,173)" stroke-width="1" opacity="0.9725490196078431" d="M 337.5 321 L 363 321.5 L 337.5 322 L 337.5 321 Z " /><path fill="rgb(248,175,173)" stroke="rgb(248,175,173)" stroke-width="1" opacity="0.9725490196078431" d="M 209.5 322 L 247 322.5 L 209.5 323 L 209.5 322 Z " /><path fill="rgb(248,175,173)" stroke="rgb(248,175,173)" stroke-width="1" opacity="0.9725490196078431" d="M 369 358 L 373 358.5 L 369 360.5 L 369 407.5 L 367.5 409 L 330.5 409 L 330 409.5 L 330 416.5 L 329 417.5 L 329 425.5 L 330 426.5 L 330 471.5 L 328.5 473 L 289.5 473 L 289.5 472 L 328 472 L 328 409.5 L 329.5 408 L 366.5 408 L 368 406.5 L 368 360.5 L 369 358 Z " /><path fill="rgb(248,175,173)" stroke="rgb(248,175,173)" stroke-width="1" opacity="0.9725490196078431" d="M 329.5 396 L 330 398 L 327.5 399 L 289.5 399 L 289.5 398 L 327.5 398 L 329.5 396 Z " /><path fill="rgb(248,175,173)" stroke="rgb(248,175,173)" stroke-width="1" opacity="0.9725490196078431" d="M 771.5 434 L 807.5 434 L 809 435.5 L 809 534.5 L 808 537 L 769.5 537 L 768 535.5 L 768 503.5 L 770.5 501 L 769 503.5 L 769 535.5 L 769.5 536 L 776.5 536 L 777.5 535 L 798.5 535 L 800.5 536 L 801.5 535 L 808 535 L 808 435 L 771 435 L 770.5 497 L 770 435.5 L 771.5 434 Z " /><path fill="rgb(248,175,173)" stroke="rgb(248,175,173)" stroke-width="1" opacity="0.9725490196078431" d="M 731.5 537 L 766.5 537 L 768 538.5 L 768 568 L 729 568 L 729 539.5 L 731.5 537 Z " /><path fill="rgb(248,175,173)" stroke="rgb(248,175,173)" stroke-width="1" opacity="0.9725490196078431" d="M 691.5 570 L 728 570 L 728 597.5 L 726.5 599 L 690 599 L 690 571.5 L 691.5 570 Z " /><path fill="rgb(248,175,173)" stroke="rgb(248,175,173)" stroke-width="1" opacity="0.9725490196078431" d="M 967.5 670 L 968 679.5 L 967 679.5 L 967.5 670 Z " /><path fill="rgb(248,175,173)" stroke="rgb(248,175,173)" stroke-width="1" opacity="0.9725490196078431" d="M 967.5 683 L 968 712.5 L 967 712.5 L 967.5 683 Z " /><path fill="rgb(248,175,173)" stroke="rgb(248,175,173)" stroke-width="1" opacity="0.9725490196078431" d="M 967.5 715 L 968 735.5 L 967 735.5 L 967.5 715 Z " /><path fill="rgb(248,175,173)" stroke="rgb(248,175,173)" stroke-width="1" opacity="0.9725490196078431" d="M 128.5 730 L 129 735.5 L 128 735.5 L 128.5 730 Z " /><path fill="rgb(248,175,173)" stroke="rgb(248,175,173)" stroke-width="1" opacity="0.9725490196078431" d="M 926.5 788 L 928 788.5 L 926.5 789 L 926.5 788 Z " /><path fill="rgb(248,175,173)" stroke="rgb(248,175,173)" stroke-width="1" opacity="0.9725490196078431" d="M 407 1002 L 434.5 1002 L 435 1004 L 407.5 1004 L 407 1002 Z " /><path fill="rgb(248,175,173)" stroke="rgb(248,175,173)" stroke-width="1" opacity="0.9725490196078431" d="M 441.5 1002 L 448 1002.5 Q 447 1005 442.5 1004 L 441.5 1002 Z " /><path fill="rgb(239,68,68)" stroke="rgb(239,68,68)" stroke-width="1" opacity="1" d="M 611.5 91 L 612.5 92 L 622.5 92 L 625.5 91 L 626.5 92 L 652.5 92 L 657.5 91 L 658.5 92 L 670.5 92 L 674.5 91 L 675.5 92 L 686.5 92 L 688 91.5 L 688 165 L 650.5 165 L 648 167.5 L 648 242 L 609 242 L 609 357 L 570.5 357 L 569 358.5 L 569 571 L 609 571 L 609 633.5 L 609.5 634 L 648 634 L 648 694 L 688 694 L 688 724 L 727 724 L 727 750 L 690.5 750 L 688 752.5 L 688 783 L 650.5 783 L 647 787.5 L 648 788.5 L 648 816 L 491.5 816 L 491 815.5 L 491 786.5 L 488.5 784 L 409 784 L 409 753.5 L 411 751.5 L 408.5 749 L 370 749 L 370 718.5 Q 367.3 719.1 368 716 L 336.5 716 L 333.5 718 L 330 716 L 330 665.5 L 329 663 L 326.5 662 L 325.5 663 L 291 663 L 291 598 Q 287.9 598.8 288.5 596 L 248.5 596 L 246 598.5 L 246 691.5 L 248.5 694 L 287 694 L 287 747.5 L 289.5 750 L 328 750 L 328 810.5 L 330.5 813 L 368 813 L 368 828.5 L 369.5 830 L 371.5 829 L 409 829 L 408 833.5 L 409 834.5 L 409 849.5 Q 406.8 850.8 408 855.5 L 409 856.5 L 409 867.5 L 410 870 L 448 870 L 448 900 L 370 900 L 370 862 L 330 862 L 330 826.5 L 328.5 825 L 290 825 L 290 785.5 L 288.5 784 L 251.5 784 L 250 782.5 L 250 726.5 L 247.5 724 L 209.5 724 L 209 723.5 L 209 472 L 247.5 472 L 249 470.5 L 249 398.5 Q 249.1 397.4 254.5 398 L 255.5 397 L 288.5 397 L 290 395.5 L 290 382.5 L 291 380.5 L 290 379.5 L 290 358.5 L 291 357.5 L 291 322 L 330 322 L 330 395.5 L 327.5 398 L 289 398 L 289 473 L 328.5 473 L 330 471.5 L 330 426.5 L 329 425.5 L 329 417.5 L 330 416.5 L 330 409 L 367.5 409 L 369 407.5 L 369 360.5 L 370.5 359 L 373.5 358 L 410 358 L 410 320 L 447.5 320 L 449 318.5 L 449 282 L 487.5 282 L 488 280.5 L 489 279.5 L 489 243.5 L 490.5 242 L 529 242 L 529 204.5 L 529.5 204 L 536.5 204 L 537.5 203 L 570 203 L 570 166 L 530 166 L 530 129.5 L 531.5 128 L 570 128 L 570 166 L 648.5 166 L 650 164.5 L 650 128.5 L 648.5 127 L 610 127 L 611 124.5 L 611 103.5 Q 608.3 101.7 610 95.5 L 611.5 91 Z M 492 320 L 489 323 L 489 359 L 453 359 L 451 361 L 451 434 L 453 435 L 488 435 L 489 434 L 489 398 L 496 397 L 529 397 L 529 321 L 527 320 L 492 320 Z " /><path fill="rgb(239,68,68)" stroke="rgb(239,68,68)" stroke-width="1" opacity="1" d="M 452 168 L 490 168 L 490 202.5 L 488.5 204 L 451.5 204 L 450 205.5 L 450 242 L 412 242 L 412 206 L 448.5 206 L 452 202.5 L 452 168 Z " /><path fill="rgb(239,68,68)" stroke="rgb(239,68,68)" stroke-width="1" opacity="1" d="M 410.5 244 L 410 245.5 L 410 280.5 L 408.5 282 L 370 282 L 370 245 L 409.5 245 L 410.5 244 Z " /><path fill="rgb(239,68,68)" stroke="rgb(239,68,68)" stroke-width="1" opacity="1" d="M 330 284 L 369 284 L 369 319.5 L 367.5 321 L 330 321 L 330 284 Z " /><path fill="rgb(239,68,68)" stroke="rgb(239,68,68)" stroke-width="1" opacity="1" d="M 770 399 L 806.5 399 L 808 400.5 L 807 403.5 L 807 431.5 Q 809.3 432.7 806.5 434 L 771.5 434 L 770 432.5 L 770 399 Z " /><path fill="rgb(239,68,68)" stroke="rgb(239,68,68)" stroke-width="1" opacity="1" d="M 809 436 L 846 436 L 846 536 L 809.5 536 L 807 538.5 Q 805.4 548.6 808 554.5 L 807 555.5 L 807 596.5 L 807.5 598 L 769.5 598 L 767 599 L 767 630 L 732.5 630 L 732 631.5 L 731 631.5 L 730 629.5 L 730 600.5 L 728.5 599 L 727 598.5 L 728 597.5 L 728 570 L 691.5 570 L 690.5 571 L 690 539 L 729 539 L 729 568 L 768 568 L 768 538.5 L 766.5 537 L 731 537 L 731 504 L 766.5 504 L 767.5 503 L 768 535.5 L 769.5 537 L 807.5 537 L 808 535.5 L 809 534.5 L 809 436 Z " /><path fill="rgb(239,68,68)" stroke="rgb(239,68,68)" stroke-width="1" opacity="1" d="M 730 755 L 767 755 L 767 781.5 L 765.5 783 L 730 783 L 730 755 Z " /><path fill="rgb(239,68,68)" stroke="rgb(239,68,68)" stroke-width="1" opacity="1" d="M 690 834 L 727 834 L 727 864 L 690 864 L 690 834 Z " /><path fill="rgb(239,68,68)" stroke="rgb(239,68,68)" stroke-width="1" opacity="1" d="M 651 870 L 688 870 L 688 900 L 651 900 L 651 870 Z " /><path fill="rgb(239,68,68)" stroke="rgb(239,68,68)" stroke-width="1" opacity="1" d="M 452 904 L 647.5 904 L 648 904.5 L 648 933 L 452.5 933 L 452 932.5 L 452 904 Z " /><path fill="rgb(253,221,219)" stroke="rgb(253,221,219)" stroke-width="1" opacity="1" d="M 648.5 128 L 649 163.5 L 647.5 165 L 571.5 165 L 570 163.5 L 570 132.5 L 571.5 129 L 572 164 L 646.5 164 L 648 162.5 L 648.5 128 Z " /><path fill="rgb(253,221,219)" stroke="rgb(253,221,219)" stroke-width="1" opacity="1" d="M 491.5 167 L 568.5 167 Q 569.6 167.1 569 172.5 L 568 172.5 Q 568.5 168 567.5 168 L 491.5 168 L 491.5 167 Z " /><path fill="rgb(253,221,219)" stroke="rgb(253,221,219)" stroke-width="1" opacity="1" d="M 568.5 183 L 569 186.5 L 568 186.5 L 568.5 183 Z " /><path fill="rgb(253,221,219)" stroke="rgb(253,221,219)" stroke-width="1" opacity="1" d="M 528.5 202 L 530 202.5 L 528 203 L 528 239.5 L 527 242 L 489 241.5 L 501.5 240 L 502.5 241 L 514.5 241 L 515.5 240 L 527 240 L 527 203.5 L 528.5 202 Z " /><path fill="rgb(253,221,219)" stroke="rgb(253,221,219)" stroke-width="1" opacity="1" d="M 490.5 204 L 491 206 L 452 206 L 452 242.5 Q 451.5 245.5 447.5 245 L 447.5 244 Q 450.8 245.1 450 242.5 L 451 241.5 L 451 206.5 L 452.5 205 L 489.5 205 L 490.5 204 Z " /><path fill="rgb(253,221,219)" stroke="rgb(253,221,219)" stroke-width="1" opacity="1" d="M 487.5 242 L 488 279.5 L 486.5 281 L 449.5 281 L 448 282.5 L 448 319 L 410.5 319 L 409 320.5 L 409 358 L 369.5 358 L 369 359.5 L 368 360.5 L 368 406.5 L 366.5 408 L 329.5 408 L 328 409.5 L 328 472 L 289 472 L 289 399 L 327.5 399 L 331 398 L 332 394.5 L 332.5 364 L 333 387.5 L 334.5 389 L 337 389 Q 336 386 339 387 L 339 379.5 L 347.5 372 L 353 372 Q 351.8 369 355.5 370 L 361 365.5 L 364 361.5 L 364 359 Q 367 357.8 366 361.5 L 367 361.5 Q 365.5 357.1 368.5 358 L 369.5 357 L 408 357 L 408 320.5 L 410.5 318 L 445.5 318 L 447 316.5 L 447 282.5 L 448 280 L 469.5 280 L 473.5 279 L 474.5 280 L 484.5 280 L 487 279 L 487.5 242 Z M 332 406 L 332 407 L 334 407 L 332 406 Z " /><path fill="rgb(253,221,219)" stroke="rgb(253,221,219)" stroke-width="1" opacity="1" d="M 411.5 250 L 412 281.5 L 409.5 284 L 377.5 284 L 370 282.5 L 411 282 L 411.5 250 Z " /><path fill="rgb(253,221,219)" stroke="rgb(253,221,219)" stroke-width="1" opacity="1" d="M 330.5 321 L 337 321.5 L 330.5 322 L 330.5 321 Z " /><path fill="rgb(253,221,219)" stroke="rgb(253,221,219)" stroke-width="1" opacity="1" d="M 363.5 321 L 370 321.5 L 363.5 322 L 363.5 321 Z " /><path fill="rgb(253,221,219)" stroke="rgb(253,221,219)" stroke-width="1" opacity="1" d="M 491.5 321 L 526.5 321 L 528 322.5 L 527.5 396 L 527 322 L 491.5 322 L 491.5 321 Z " /><path fill="rgb(253,221,219)" stroke="rgb(253,221,219)" stroke-width="1" opacity="1" d="M 340.5 323 L 346 323.5 L 340.5 324 L 340.5 323 Z " /><path fill="rgb(253,221,219)" stroke="rgb(253,221,219)" stroke-width="1" opacity="1" d="M 352.5 323 L 362 323.5 L 352.5 324 L 352.5 323 Z " /><path fill="rgb(253,221,219)" stroke="rgb(253,221,219)" stroke-width="1" opacity="1" d="M 490.5 332 L 491 359.5 L 489.5 361 L 452.5 361 L 452.5 360 L 490 360 L 490.5 332 Z " /><path fill="rgb(253,221,219)" stroke="rgb(253,221,219)" stroke-width="1" opacity="1" d="M 395.5 355 L 397 355.5 L 395.5 356 L 395.5 355 Z " /><path fill="rgb(253,221,219)" stroke="rgb(253,221,219)" stroke-width="1" opacity="1" d="M 452.5 368 L 453 375.5 L 452 375.5 L 452.5 368 Z " /><path fill="rgb(253,221,219)" stroke="rgb(253,221,219)" stroke-width="1" opacity="1" d="M 488.5 396 L 488 397.5 L 488 434 L 452.5 434 L 452.5 433 L 487 433 L 487 397.5 L 488.5 396 Z " /><path fill="rgb(253,221,219)" stroke="rgb(253,221,219)" stroke-width="1" opacity="1" d="M 806.5 435 L 808 435.5 L 808 535 L 799.5 536 L 798.5 535 L 777.5 535 Q 775.7 537.8 769.5 536 L 769.5 535 Q 772.1 535.8 771 532.5 L 770 531.5 L 769 510.5 Q 771.3 509.2 770 504.5 Q 767.8 503.2 770.5 502 L 772 502.5 L 771 489.5 L 772 488.5 L 772.5 441 L 773.5 445 L 774 443 L 776.5 444 L 777 437.5 L 776.5 436 L 805.5 436 L 806.5 435 Z " /><path fill="rgb(187,38,38)" stroke="rgb(187,38,38)" stroke-width="1" opacity="0.996078431372549" d="M 609.5 96 L 610 101.5 L 609 101.5 L 609.5 96 Z " /><path fill="rgb(187,38,38)" stroke="rgb(187,38,38)" stroke-width="1" opacity="0.996078431372549" d="M 650.5 165 L 688 165.5 L 650.5 166 L 650.5 165 Z " /><path fill="rgb(187,38,38)" stroke="rgb(187,38,38)" stroke-width="1" opacity="0.996078431372549" d="M 451.5 167 L 489 167.5 L 451 168 L 451 203.5 L 449.5 205 L 412 204.5 L 450 204 L 450 168.5 L 451.5 167 Z " /><path fill="rgb(187,38,38)" stroke="rgb(187,38,38)" stroke-width="1" opacity="0.996078431372549" d="M 649.5 167 L 650 241.5 L 649 241.5 L 649.5 167 Z " /><path fill="rgb(187,38,38)" stroke="rgb(187,38,38)" stroke-width="1" opacity="0.996078431372549" d="M 370.5 244 L 408 244.5 L 370.5 245 L 370.5 244 Z " /><path fill="rgb(187,38,38)" stroke="rgb(187,38,38)" stroke-width="1" opacity="0.996078431372549" d="M 368.5 282 L 367.5 284 L 330 283.5 L 367.5 283 L 368.5 282 Z " /><path fill="rgb(187,38,38)" stroke="rgb(187,38,38)" stroke-width="1" opacity="0.996078431372549" d="M 329.5 320 L 328.5 322 L 290 322 L 290 358.5 L 289 358.5 L 289 322.5 L 290.5 321 L 328.5 321 L 329.5 320 Z " /><path fill="rgb(187,38,38)" stroke="rgb(187,38,38)" stroke-width="1" opacity="0.996078431372549" d="M 570.5 358 L 574 358.5 L 570 359 L 569.5 569 L 569 359.5 L 570.5 358 Z " /><path fill="rgb(187,38,38)" stroke="rgb(187,38,38)" stroke-width="1" opacity="0.996078431372549" d="M 584.5 358 L 605 358.5 L 584.5 359 L 584.5 358 Z " /><path fill="rgb(187,38,38)" stroke="rgb(187,38,38)" stroke-width="1" opacity="0.996078431372549" d="M 289.5 380 L 290 382.5 L 289 382.5 L 289.5 380 Z " /><path fill="rgb(187,38,38)" stroke="rgb(187,38,38)" stroke-width="1" opacity="0.996078431372549" d="M 252.5 396 L 289 396.5 L 252.5 397 L 252.5 396 Z " /><path fill="rgb(187,38,38)" stroke="rgb(187,38,38)" stroke-width="1" opacity="0.996078431372549" d="M 248 397 L 250 397.5 L 249 398.5 L 248.5 449 L 248 397 Z " /><path fill="rgb(187,38,38)" stroke="rgb(187,38,38)" stroke-width="1" opacity="0.996078431372549" d="M 784.5 398 L 808 398.5 L 784.5 399 L 784.5 398 Z " /><path fill="rgb(187,38,38)" stroke="rgb(187,38,38)" stroke-width="1" opacity="0.996078431372549" d="M 807.5 422 L 808 423.5 L 807 423.5 L 807.5 422 Z " /><path fill="rgb(187,38,38)" stroke="rgb(187,38,38)" stroke-width="1" opacity="0.996078431372549" d="M 810.5 435 L 821 435.5 L 810.5 436 L 810.5 435 Z " /><path fill="rgb(187,38,38)" stroke="rgb(187,38,38)" stroke-width="1" opacity="0.996078431372549" d="M 842.5 435 L 846 435.5 L 842.5 436 L 842.5 435 Z " /><path fill="rgb(187,38,38)" stroke="rgb(187,38,38)" stroke-width="1" opacity="0.996078431372549" d="M 248.5 454 L 249 455.5 L 248 455.5 L 248.5 454 Z " /><path fill="rgb(187,38,38)" stroke="rgb(187,38,38)" stroke-width="1" opacity="0.996078431372549" d="M 248.5 458 L 249 463.5 L 248 463.5 L 248.5 458 Z " /><path fill="rgb(187,38,38)" stroke="rgb(187,38,38)" stroke-width="1" opacity="0.996078431372549" d="M 209.5 470 L 232.5 470 Q 234.3 472.8 240.5 471 Q 242 468.5 247.5 470 L 247.5 471 L 244.5 472 L 213.5 472 L 209 471 L 209 723.5 L 209.5 724 L 246.5 724 L 249 726.5 L 249 784 L 289 784.5 L 249.5 785 L 248 783.5 L 248 726.5 L 246.5 725 L 208.5 725 L 208 724.5 L 208 471.5 L 209.5 470 Z " /><path fill="rgb(187,38,38)" stroke="rgb(187,38,38)" stroke-width="1" opacity="0.996078431372549" d="M 846.5 471 L 847.5 472 L 876.5 472 L 879.5 473 L 880.5 472 L 887 472 L 887 691.5 L 886.5 692 L 847.5 692 L 846 693.5 L 846 722 L 809 722 L 809 694.5 L 807.5 693 L 770.5 693 L 769 691.5 L 770 665.5 L 769 663 L 731 663 L 731 632.5 L 728.5 630 L 690 630 L 690 600 L 729 600 L 729 629.5 L 731.5 632 L 768 632 L 768 600.5 L 769.5 599 L 807.5 599 L 809 597.5 L 808 596.5 L 808 555.5 L 809 552.5 L 808 551.5 L 808 538 L 845.5 538 L 847 536.5 L 847 472.5 L 846.5 471 Z " /><path fill="rgb(187,38,38)" stroke="rgb(187,38,38)" stroke-width="1" opacity="0.996078431372549" d="M 690.5 538 L 728 538.5 L 690.5 539 L 690.5 538 Z " /><path fill="rgb(187,38,38)" stroke="rgb(187,38,38)" stroke-width="1" opacity="0.996078431372549" d="M 247 598 L 289 598 L 289 664 L 325.5 664 Q 327.2 661.3 329 665.5 L 329 718 L 367.5 718 L 369 720.5 L 368 721.5 L 368 748.5 L 369.5 750 L 407.5 750 L 409 751.5 L 409 785 L 488.5 785 L 489 786.5 L 490 787.5 L 490 817 L 648.5 817 L 649 816.5 L 649 785.5 L 650.5 785 L 651.5 784 L 689 784 L 689 753.5 L 690.5 752 L 726.5 752 L 727 750.5 L 728 750.5 L 728.5 752 L 766.5 752 L 767 754 L 728 754 L 728 782.5 L 729.5 784 L 765.5 784 L 767 783.5 L 767 832 L 729.5 832 L 729 833.5 L 728 834.5 L 727.5 865 L 727 833 L 689 833 L 689 863.5 L 690 865.5 L 687.5 868 L 649 868 L 649 900 L 687.5 900 L 687.5 901 L 650.5 901 L 649 902.5 L 648.5 933 L 648 902 L 451.5 902 L 449 899.5 L 449 868 L 410.5 868 L 410 867.5 L 410 858.5 L 409 857.5 L 409 849.5 L 410 848.5 L 410 840.5 Q 407.3 838.7 409 832.5 L 410 829.5 L 408.5 828 L 371.5 828 Q 370.2 830.3 369 827.5 L 369 812 L 330.5 812 L 329 810.5 L 329 749.5 L 327.5 748 L 289 748 L 289 694.5 L 287.5 693 L 249.5 693 L 247 692 L 247 598 Z " /><path fill="rgb(187,38,38)" stroke="rgb(187,38,38)" stroke-width="1" opacity="0.996078431372549" d="M 609.5 632 L 617 633.5 L 610.5 634 L 609.5 632 Z " /><path fill="rgb(187,38,38)" stroke="rgb(187,38,38)" stroke-width="1" opacity="0.996078431372549" d="M 622.5 633 L 630 633.5 L 622.5 634 L 622.5 633 Z " /><path fill="rgb(187,38,38)" stroke="rgb(187,38,38)" stroke-width="1" opacity="0.996078431372549" d="M 636.5 633 L 648.5 633 L 650 634.5 L 650 692.5 L 651 693.5 L 649 694 L 649 634.5 L 648.5 634 L 636.5 634 L 636.5 633 Z " /><path fill="rgb(187,38,38)" stroke="rgb(187,38,38)" stroke-width="1" opacity="0.996078431372549" d="M 688.5 722 L 690.5 723 L 728 723.5 L 689.5 724 L 688.5 722 Z " /><path fill="rgb(187,38,38)" stroke="rgb(187,38,38)" stroke-width="1" opacity="0.996078431372549" d="M 289.5 825 L 329 825.5 L 289.5 826 L 289.5 825 Z " /><path fill="rgb(187,38,38)" stroke="rgb(187,38,38)" stroke-width="1" opacity="0.996078431372549" d="M 329.5 827 L 330 837.5 L 329 837.5 L 329.5 827 Z " /><path fill="rgb(187,38,38)" stroke="rgb(187,38,38)" stroke-width="1" opacity="0.996078431372549" d="M 329.5 861 L 330.5 862 L 368.5 862 L 370 863.5 L 369.5 865 L 369 863 L 330.5 863 L 329.5 861 Z " /><path fill="rgb(187,38,38)" stroke="rgb(187,38,38)" stroke-width="1" opacity="0.996078431372549" d="M 370.5 900 L 412 900.5 L 370.5 901 L 370.5 900 Z " /><path fill="rgb(187,38,38)" stroke="rgb(187,38,38)" stroke-width="1" opacity="0.996078431372549" d="M 412 902 L 450 902 L 450 934 L 444.5 935 L 443.5 934 L 430.5 934 L 429.5 935 L 420.5 935 L 415.5 934 L 413.5 935 L 412 933.5 L 412 902 Z " /></svg>