<svg viewBox="0 0 1080 1080" version="1.1" xmlns="http://www.w3.org/2000/svg" desc="Created with imagetracer.js version 1.2.6" ><path fill="rgb(27,5,4)" stroke="rgb(27,5,4)" stroke-width="1" opacity="0.9137254901960784" d="M 610.5 90 L 687.5 90 L 689 91.5 L 688.5 166 L 688 91 L 610.5 91 L 610 92.5 L 609 92.5 L 610.5 90 Z " /><path fill="rgb(27,5,4)" stroke="rgb(27,5,4)" stroke-width="1" opacity="0.9137254901960784" d="M 529.5 127 L 570 127.5 L 529.5 128 L 529.5 127 Z " /><path fill="rgb(27,5,4)" stroke="rgb(27,5,4)" stroke-width="1" opacity="0.9137254901960784" d="M 491.5 165 L 529 165.5 L 491.5 166 L 491.5 165 Z " /><path fill="rgb(27,5,4)" stroke="rgb(27,5,4)" stroke-width="1" opacity="0.9137254901960784" d="M 650.5 166 L 651 241.5 L 650 241.5 L 650.5 166 Z " /><path fill="rgb(27,5,4)" stroke="rgb(27,5,4)" stroke-width="1" opacity="0.9137254901960784" d="M 729.5 166 L 730 167.5 L 729 167.5 L 729.5 166 Z " /><path fill="rgb(27,5,4)" stroke="rgb(27,5,4)" stroke-width="1" opacity="0.9137254901960784" d="M 449.5 191 L 450 196.5 L 449 196.5 L 449.5 191 Z " /><path fill="rgb(27,5,4)" stroke="rgb(27,5,4)" stroke-width="1" opacity="0.9137254901960784" d="M 411.5 204 L 412 241.5 L 409.5 244 L 370.5 244 L 369.5 245 L 369 243 L 409.5 243 L 411 241.5 L 411.5 204 Z " /><path fill="rgb(27,5,4)" stroke="rgb(27,5,4)" stroke-width="1" opacity="0.9137254901960784" d="M 610.5 242 L 649 242.5 L 610 243 L 610 357.5 L 608.5 359 L 604.5 360 L 584.5 360 L 583.5 359 L 574.5 359 L 570.5 360 L 570.5 359 L 583.5 358 L 584.5 359 L 604.5 359 L 609 358 L 609 243.5 L 610.5 242 Z " /><path fill="rgb(27,5,4)" stroke="rgb(27,5,4)" stroke-width="1" opacity="0.9137254901960784" d="M 692.5 242 L 693 244 L 691 243.5 L 692.5 242 Z " /><path fill="rgb(27,5,4)" stroke="rgb(27,5,4)" stroke-width="1" opacity="0.9137254901960784" d="M 329.5 283 L 330 319.5 L 328 320.5 L 329 319.5 L 329.5 283 Z " /><path fill="rgb(27,5,4)" stroke="rgb(27,5,4)" stroke-width="1" opacity="0.9137254901960784" d="M 208.5 325 L 209 394.5 L 208 394.5 L 208.5 325 Z " /><path fill="rgb(27,5,4)" stroke="rgb(27,5,4)" stroke-width="1" opacity="0.9137254901960784" d="M 727.5 377 L 728 378.5 L 727 378.5 L 727.5 377 Z " /><path fill="rgb(27,5,4)" stroke="rgb(27,5,4)" stroke-width="1" opacity="0.9137254901960784" d="M 248.5 396 L 250 396.5 L 248.5 397 L 248.5 396 Z " /><path fill="rgb(27,5,4)" stroke="rgb(27,5,4)" stroke-width="1" opacity="0.9137254901960784" d="M 769.5 397 L 807.5 397 L 809 398.5 L 809 434 L 846.5 434 L 847 435.5 L 845.5 435 L 809.5 435 L 808 433.5 L 808 398 L 769.5 398 L 769.5 397 Z " /><path fill="rgb(27,5,4)" stroke="rgb(27,5,4)" stroke-width="1" opacity="0.9137254901960784" d="M 768.5 421 L 769 427.5 L 768 427.5 L 768.5 421 Z " /><path fill="rgb(27,5,4)" stroke="rgb(27,5,4)" stroke-width="1" opacity="0.9137254901960784" d="M 207 470 L 209 470.5 L 208 471.5 L 207.5 725 L 207 470 Z " /><path fill="rgb(27,5,4)" stroke="rgb(27,5,4)" stroke-width="1" opacity="0.9137254901960784" d="M 215.5 470 L 217 470.5 L 215.5 471 L 215.5 470 Z " /><path fill="rgb(27,5,4)" stroke="rgb(27,5,4)" stroke-width="1" opacity="0.9137254901960784" d="M 232.5 470 L 243 470.5 L 232.5 471 L 232.5 470 Z " /><path fill="rgb(27,5,4)" stroke="rgb(27,5,4)" stroke-width="1" opacity="0.9137254901960784" d="M 847.5 471 L 876.5 471 L 879.5 472 L 880.5 471 L 888 471 L 887.5 692 L 887 472 L 877.5 473 L 876.5 472 L 847.5 472 L 847.5 471 Z " /><path fill="rgb(27,5,4)" stroke="rgb(27,5,4)" stroke-width="1" opacity="0.9137254901960784" d="M 730.5 502 L 768 502.5 L 730 503 L 729.5 511 L 729 503.5 L 730.5 502 Z " /><path fill="rgb(27,5,4)" stroke="rgb(27,5,4)" stroke-width="1" opacity="0.9137254901960784" d="M 729.5 517 L 730 528.5 L 729 528.5 L 729.5 517 Z " /><path fill="rgb(27,5,4)" stroke="rgb(27,5,4)" stroke-width="1" opacity="0.9137254901960784" d="M 729.5 534 L 730 535.5 L 729 535.5 L 729.5 534 Z " /><path fill="rgb(27,5,4)" stroke="rgb(27,5,4)" stroke-width="1" opacity="0.9137254901960784" d="M 689.5 538 L 690 629.5 L 691 630.5 L 689 629.5 L 689.5 538 Z " /><path fill="rgb(27,5,4)" stroke="rgb(27,5,4)" stroke-width="1" opacity="0.9137254901960784" d="M 570.5 569 L 608.5 569 L 610 570.5 L 610 631.5 L 613.5 632 L 613.5 633 Q 609.8 633.8 609 631.5 L 609 570 L 570.5 570 L 570.5 569 Z " /><path fill="rgb(27,5,4)" stroke="rgb(27,5,4)" stroke-width="1" opacity="0.9137254901960784" d="M 729.5 631 L 731 632.5 L 731 663 L 769 663.5 L 731.5 664 L 730 662.5 L 730 632.5 L 729.5 631 Z " /><path fill="rgb(27,5,4)" stroke="rgb(27,5,4)" stroke-width="1" opacity="0.9137254901960784" d="M 638.5 632 L 648.5 632 L 651 634.5 L 651 693 L 689 693 L 689 721.5 L 688 721.5 L 688 694 L 651.5 694 L 650 692.5 L 650 634.5 L 648.5 633 L 638.5 633 L 638.5 632 Z " /><path fill="rgb(27,5,4)" stroke="rgb(27,5,4)" stroke-width="1" opacity="0.9137254901960784" d="M 615.5 633 L 624 633.5 L 615.5 634 L 615.5 633 Z " /><path fill="rgb(27,5,4)" stroke="rgb(27,5,4)" stroke-width="1" opacity="0.9137254901960784" d="M 629.5 633 L 636 633.5 L 629.5 634 L 629.5 633 Z " /><path fill="rgb(27,5,4)" stroke="rgb(27,5,4)" stroke-width="1" opacity="0.9137254901960784" d="M 769.5 677 L 770 685.5 L 769 685.5 L 769.5 677 Z " /><path fill="rgb(27,5,4)" stroke="rgb(27,5,4)" stroke-width="1" opacity="0.9137254901960784" d="M 847.5 692 L 847 693.5 L 847 721.5 L 845.5 723 L 810 722.5 L 846 722 L 846 693.5 L 847.5 692 Z " /><path fill="rgb(27,5,4)" stroke="rgb(27,5,4)" stroke-width="1" opacity="0.9137254901960784" d="M 770.5 693 L 807.5 693 L 809 694.5 L 808.5 722 L 808 694 L 770.5 694 L 770.5 693 Z " /><path fill="rgb(27,5,4)" stroke="rgb(27,5,4)" stroke-width="1" opacity="0.9137254901960784" d="M 690.5 722 L 728 722.5 L 690.5 723 L 690.5 722 Z " /><path fill="rgb(27,5,4)" stroke="rgb(27,5,4)" stroke-width="1" opacity="0.9137254901960784" d="M 767.5 752 L 768 833 L 730.5 833 L 728.5 835 L 728 833 L 730.5 832 L 767 832 L 767.5 752 Z " /><path fill="rgb(27,5,4)" stroke="rgb(27,5,4)" stroke-width="1" opacity="0.9137254901960784" d="M 328.5 826 L 329 861.5 L 330 862.5 L 328 863 L 328.5 826 Z " /><path fill="rgb(27,5,4)" stroke="rgb(27,5,4)" stroke-width="1" opacity="0.9137254901960784" d="M 887.5 833 L 888 836 L 886 835.5 L 887.5 833 Z " /><path fill="rgb(27,5,4)" stroke="rgb(27,5,4)" stroke-width="1" opacity="0.9137254901960784" d="M 336.5 863 L 346 863.5 L 336.5 864 L 336.5 863 Z " /><path fill="rgb(27,5,4)" stroke="rgb(27,5,4)" stroke-width="1" opacity="0.9137254901960784" d="M 354.5 863 L 369 863.5 L 354.5 864 L 354.5 863 Z " /><path fill="rgb(27,5,4)" stroke="rgb(27,5,4)" stroke-width="1" opacity="0.9137254901960784" d="M 690.5 865 L 728 865.5 L 690.5 866 L 689 867.5 L 688.5 901 L 688 867.5 L 690.5 865 Z " /><path fill="rgb(27,5,4)" stroke="rgb(27,5,4)" stroke-width="1" opacity="0.9137254901960784" d="M 234.5 866 L 246 866.5 L 234.5 867 L 234.5 866 Z " /><path fill="rgb(27,5,4)" stroke="rgb(27,5,4)" stroke-width="1" opacity="0.9137254901960784" d="M 411.5 901 L 412 934.5 L 411 934.5 L 411.5 901 Z " /><path fill="rgb(27,5,4)" stroke="rgb(27,5,4)" stroke-width="1" opacity="0.9137254901960784" d="M 450.5 933 L 649 933.5 L 450.5 934 L 449.5 935 L 450.5 933 Z " /><path fill="rgb(253,227,225)" stroke="rgb(253,227,225)" stroke-width="1" opacity="1" d="M 571.5 128 L 648 128 L 648 162.5 L 646.5 164 L 572 164 L 572 129.5 L 571.5 128 Z " /><path fill="rgb(253,227,225)" stroke="rgb(253,227,225)" stroke-width="1" opacity="1" d="M 491 168 L 567.5 168 Q 568.5 168 568 172.5 L 569 173.5 L 569 182.5 L 568 186.5 L 569 187.5 L 569 202 L 528.5 202 L 527 203.5 L 527 239.5 L 526.5 240 L 515.5 240 L 514.5 241 L 502.5 241 L 500.5 240 L 499.5 241 Q 490.6 239.8 487 242 L 487 278.5 L 485.5 279 L 484.5 280 L 474.5 280 L 470.5 279 L 469.5 280 L 448 280 L 447 282.5 L 447 316.5 L 445.5 318 L 410.5 318 L 408 320.5 L 408 357 L 369.5 357 L 367 358 L 366.5 362 L 366 359 Q 363 357.8 364 361.5 L 358.5 368 L 353 370 Q 354.4 374 347.5 372 L 339 379.5 L 339 387 Q 336 386 337 389 L 334.5 389 L 333 387.5 L 332.5 364 L 332 394.5 L 330.5 398 L 330 322 L 370 322 L 370 283.5 Q 370.3 282.3 376.5 283 L 377.5 284 L 409.5 284 L 412 281.5 L 412 245.5 L 413.5 244 L 444.5 244 L 445.5 245 L 447.5 245 Q 451.5 245.5 452 242.5 L 452 206 L 491 206 L 491 168 Z M 341 323 L 341 324 L 346 324 L 341 323 Z M 353 323 L 353 324 L 362 324 L 353 323 Z M 396 355 L 396 356 L 397 356 L 396 355 Z " /><path fill="rgb(253,227,225)" stroke="rgb(253,227,225)" stroke-width="1" opacity="1" d="M 491 322 L 527 322 L 527 396 L 488.5 396 L 487 397.5 L 487 433 L 452 433 L 452 376.5 Q 454.8 374.8 453 368.5 L 452 366.5 L 452 364.5 L 452.5 361 L 489.5 361 L 491 359.5 L 491 322 Z " /><path fill="rgb(253,227,225)" stroke="rgb(253,227,225)" stroke-width="1" opacity="1" d="M 331.5 406 L 334 406.5 L 331.5 407 L 331.5 406 Z " /><path fill="rgb(253,227,225)" stroke="rgb(253,227,225)" stroke-width="1" opacity="1" d="M 771 435 L 806 435.5 L 776 436.5 Q 778.5 438 777 443.5 L 775.5 443 Q 773.3 442.3 774 444.5 L 773 444.5 L 772.5 441 L 771.5 489 L 771 435 Z " /><path fill="rgb(253,227,225)" stroke="rgb(253,227,225)" stroke-width="1" opacity="1" d="M 771.5 499 L 772 502.5 L 771 502.5 L 771.5 499 Z " /><path fill="rgb(253,227,225)" stroke="rgb(253,227,225)" stroke-width="1" opacity="1" d="M 769.5 504 L 770 509.5 L 769 509.5 L 769.5 504 Z " /><path fill="rgb(253,227,225)" stroke="rgb(253,227,225)" stroke-width="1" opacity="1" d="M 769.5 520 L 770 531.5 L 771 535 L 769 534.5 L 769.5 520 Z " /><path fill="rgb(0,0,0)" stroke="rgb(0,0,0)" stroke-width="1" opacity="0" d="M 0 0 L 1080 0 L 1080 1080 L 0 1080 L 0 0 Z M 572 54 L 570 56 L 570 90 L 569 91 L 489 91 L 489 126 L 488 127 L 412 127 L 410 129 L 410 166 L 409 167 L 371 167 L 371 206 L 330 206 L 330 244 L 289 244 L 289 246 L 289 283 L 251 283 L 251 325 L 208 325 L 208 396 L 169 396 L 169 471 L 130 471 L 130 736 L 131 736 L 169 736 L 169 818 L 171 819 L 209 819 L 210 821 L 210 867 L 249 867 L 249 902 L 288 902 L 289 904 L 289 932 L 329 932 L 329 964 L 408 964 L 408 1000 L 449 1000 L 449 1029 L 652 1029 L 652 1029 L 652 994 L 730 994 L 730 994 L 730 965 L 768 965 L 768 935 L 769 934 L 770 932 L 807 932 L 807 905 L 810 902 L 847 902 L 847 836 L 888 836 L 888 789 L 925 789 L 925 736 L 965 736 L 965 538 L 929 538 L 927 537 L 927 434 L 888 434 L 888 396 L 848 396 L 847 394 L 847 359 L 847 358 L 728 358 L 728 377 L 727 378 L 728 380 L 728 396 L 690 396 L 689 394 L 689 246 L 691 244 L 693 244 L 694 242 L 730 242 L 730 168 L 732 166 L 768 166 L 768 91 L 732 91 Q 732 88 728 89 L 728 54 L 572 54 Z " /><path fill="rgb(0,0,0)" stroke="rgb(0,0,0)" stroke-width="1" opacity="1" d="M 571.5 54 L 727.5 54 L 728 54.5 L 728 88.5 L 729 91 L 768 91 L 768 166 L 729.5 166 L 729 167.5 L 730 168.5 L 730 242 L 692.5 242 L 690.5 244 Q 689.3 241.8 688 244.5 L 689 245.5 L 689 393.5 Q 686.8 394.8 689.5 396 L 728 396 L 728 360.5 L 730.5 358 L 847 358 L 847 394.5 L 848.5 396 L 888 396 L 888 434 L 927 434 L 927 536.5 L 928.5 538 L 965 538 L 965 735.5 L 964.5 736 L 925 736 L 925 789 L 888 789 L 888 832.5 L 885.5 836 L 847 836 L 847 902 L 809.5 902 L 807 904.5 L 807 932 L 769.5 932 L 769 933.5 L 768 934.5 L 768 965 L 730 965 L 730 993.5 L 729.5 994 L 652 994 L 652 1028.5 L 651.5 1029 L 449 1029 L 449 1000 L 408 1000 L 408 964 L 329 964 L 329 932 L 289 932 L 289 903.5 L 287.5 902 L 249 902 L 249 867.5 L 246.5 867 L 245.5 866 L 234.5 866 L 233.5 867 L 210 867 L 210 820.5 L 208.5 819 L 170.5 819 L 169 817.5 L 169 736 L 130.5 736 L 130 735.5 L 130 472.5 L 131.5 471 L 169 471 L 169 396 L 207.5 396 L 209 394.5 L 209 325 L 251 325 L 251 283 L 289 283 L 289 244 L 330 244 L 330 206 L 371 206 L 371 167 L 408.5 167 L 410 165.5 L 410 128.5 L 411.5 127 L 487.5 127 L 489 125.5 L 489 91 L 568.5 91 L 570 89.5 L 570 55.5 L 571.5 54 Z M 611 90 L 609 92 L 609 126 L 572 126 L 571 127 L 529 127 L 529 165 L 492 165 L 489 167 L 450 167 L 450 191 L 449 192 Q 448 196 450 198 Q 451 203 449 204 L 411 204 L 411 242 L 410 243 L 369 243 L 369 281 L 368 282 L 368 283 L 329 283 L 329 320 L 328 321 L 289 321 L 289 396 L 248 396 L 248 469 L 247 470 L 208 470 L 207 471 L 207 725 L 246 725 L 248 728 L 248 785 L 289 785 L 289 826 L 328 826 L 328 863 L 336 863 L 337 864 L 346 864 L 347 863 Q 353 861 355 864 L 369 864 L 369 901 L 411 901 L 411 935 L 450 935 L 451 934 L 649 934 L 649 934 L 649 904 L 652 901 L 689 901 L 689 868 L 691 866 L 728 866 L 728 836 L 731 833 L 768 833 L 768 752 L 728 752 L 728 722 L 689 722 L 689 693 L 651 693 L 651 635 L 649 632 L 639 632 L 638 633 L 615 633 L 610 632 L 610 571 L 609 569 L 571 569 L 570 569 L 570 360 L 575 359 L 584 359 L 585 360 L 605 360 L 609 359 L 610 358 L 610 243 L 649 243 L 650 242 L 651 242 L 651 166 L 689 166 L 689 166 L 689 92 L 688 90 L 611 90 Z M 769 397 L 769 421 L 768 422 L 769 435 L 770 436 L 770 501 L 769 502 L 731 502 L 729 504 L 729 538 L 690 538 L 689 539 L 689 630 L 691 631 L 729 631 L 730 633 L 730 663 L 732 664 L 769 664 L 770 666 L 770 677 L 769 678 L 769 692 L 770 693 L 771 694 L 808 694 L 808 722 L 811 723 L 846 723 L 847 722 L 847 694 L 849 692 L 888 692 L 888 692 L 888 471 L 881 471 L 880 472 L 877 471 L 847 471 L 847 434 L 809 434 L 809 399 L 808 397 L 769 397 Z " /><path fill="rgb(223,63,62)" stroke="rgb(223,63,62)" stroke-width="1" opacity="0.996078431372549" d="M 612.5 91 L 623 91.5 L 612.5 92 L 612.5 91 Z " /><path fill="rgb(223,63,62)" stroke="rgb(223,63,62)" stroke-width="1" opacity="0.996078431372549" d="M 626.5 91 L 687 91.5 L 626.5 92 L 626.5 91 Z " /><path fill="rgb(223,63,62)" stroke="rgb(223,63,62)" stroke-width="1" opacity="0.996078431372549" d="M 610.5 92 L 611 95.5 L 610 95.5 L 610.5 92 Z " /><path fill="rgb(223,63,62)" stroke="rgb(223,63,62)" stroke-width="1" opacity="0.996078431372549" d="M 610.5 103 L 611 124.5 L 610 124.5 L 610.5 103 Z " /><path fill="rgb(223,63,62)" stroke="rgb(223,63,62)" stroke-width="1" opacity="0.996078431372549" d="M 572.5 126 L 610 126.5 L 572.5 127 L 572.5 126 Z " /><path fill="rgb(223,63,62)" stroke="rgb(223,63,62)" stroke-width="1" opacity="0.996078431372549" d="M 530.5 128 L 530 129.5 L 529.5 166 L 529 129.5 L 530.5 128 Z " /><path fill="rgb(223,63,62)" stroke="rgb(223,63,62)" stroke-width="1" opacity="0.996078431372549" d="M 525.5 166 L 527 166.5 L 525.5 167 L 525.5 166 Z " /><path fill="rgb(223,63,62)" stroke="rgb(223,63,62)" stroke-width="1" opacity="0.996078431372549" d="M 649.5 166 L 649 167.5 L 648.5 242 L 648 167.5 L 649.5 166 Z " /><path fill="rgb(223,63,62)" stroke="rgb(223,63,62)" stroke-width="1" opacity="0.996078431372549" d="M 451.5 168 L 452 202.5 L 451 202.5 L 451.5 168 Z " /><path fill="rgb(223,63,62)" stroke="rgb(223,63,62)" stroke-width="1" opacity="0.996078431372549" d="M 412.5 205 L 449 205.5 L 412.5 206 L 412.5 205 Z " /><path fill="rgb(223,63,62)" stroke="rgb(223,63,62)" stroke-width="1" opacity="0.996078431372549" d="M 411.5 242 L 409.5 245 L 408 244.5 L 411.5 242 Z " /><path fill="rgb(223,63,62)" stroke="rgb(223,63,62)" stroke-width="1" opacity="0.996078431372549" d="M 290.5 322 L 291 358.5 L 290 359.5 L 290 378.5 L 291 383.5 L 290 384.5 L 289.5 396 L 289 383.5 L 290 380.5 L 289 379.5 L 289 359.5 L 290 358.5 L 290.5 322 Z " /><path fill="rgb(223,63,62)" stroke="rgb(223,63,62)" stroke-width="1" opacity="0.996078431372549" d="M 570.5 357 L 609 357.5 L 570.5 358 L 569.5 359 L 570.5 357 Z " /><path fill="rgb(223,63,62)" stroke="rgb(223,63,62)" stroke-width="1" opacity="0.996078431372549" d="M 250.5 397 L 255 397.5 L 250.5 398 L 250.5 397 Z " /><path fill="rgb(223,63,62)" stroke="rgb(223,63,62)" stroke-width="1" opacity="0.996078431372549" d="M 769 398 L 784 398.5 L 770 399 L 770 432.5 L 771 434.5 L 770 434.5 L 769 432.5 L 769 398 Z " /><path fill="rgb(223,63,62)" stroke="rgb(223,63,62)" stroke-width="1" opacity="0.996078431372549" d="M 807.5 402 L 808 421.5 L 807 421.5 L 807.5 402 Z " /><path fill="rgb(223,63,62)" stroke="rgb(223,63,62)" stroke-width="1" opacity="0.996078431372549" d="M 807.5 423 L 808 431.5 L 807 431.5 L 807.5 423 Z " /><path fill="rgb(223,63,62)" stroke="rgb(223,63,62)" stroke-width="1" opacity="0.996078431372549" d="M 820.5 435 L 842 435.5 L 820.5 436 L 820.5 435 Z " /><path fill="rgb(223,63,62)" stroke="rgb(223,63,62)" stroke-width="1" opacity="0.996078431372549" d="M 248.5 450 L 249 452.5 L 248 452.5 L 248.5 450 Z " /><path fill="rgb(223,63,62)" stroke="rgb(223,63,62)" stroke-width="1" opacity="0.996078431372549" d="M 248.5 465 L 249 470.5 L 245.5 472 L 245.5 471 L 248 471 L 248.5 465 Z " /><path fill="rgb(223,63,62)" stroke="rgb(223,63,62)" stroke-width="1" opacity="0.996078431372549" d="M 209.5 471 L 214 471.5 L 209.5 472 L 209.5 471 Z " /><path fill="rgb(223,63,62)" stroke="rgb(223,63,62)" stroke-width="1" opacity="0.996078431372549" d="M 222.5 471 L 227 471.5 L 222.5 472 L 222.5 471 Z " /><path fill="rgb(223,63,62)" stroke="rgb(223,63,62)" stroke-width="1" opacity="0.996078431372549" d="M 846.5 472 L 847 536.5 L 845.5 538 L 808 538 L 808 551.5 L 809 554.5 L 808 555.5 L 808 596.5 Q 810.3 597.8 807.5 599 L 769.5 599 L 768 600.5 L 768 632 L 732 632 L 732.5 630 L 767 630 L 767 599.5 L 768.5 598 L 808 597.5 L 807 596.5 L 807 555.5 L 808 552.5 L 807 551.5 L 807 538.5 L 809.5 536 L 846 536 L 846.5 472 Z " /><path fill="rgb(223,63,62)" stroke="rgb(223,63,62)" stroke-width="1" opacity="0.996078431372549" d="M 770.5 497 L 771 500.5 L 769 501.5 L 770.5 497 Z " /><path fill="rgb(223,63,62)" stroke="rgb(223,63,62)" stroke-width="1" opacity="0.996078431372549" d="M 731.5 503 L 767 503.5 L 731 504 L 731 537.5 L 729.5 539 L 728 538.5 L 730 538 L 730 504.5 L 731.5 503 Z " /><path fill="rgb(223,63,62)" stroke="rgb(223,63,62)" stroke-width="1" opacity="0.996078431372549" d="M 569.5 569 L 570.5 570 L 609 570.5 L 569 571 L 569.5 569 Z " /><path fill="rgb(223,63,62)" stroke="rgb(223,63,62)" stroke-width="1" opacity="0.996078431372549" d="M 248.5 596 L 289 596 Q 288.3 599.1 291 598.5 L 291 663 L 324.5 663 L 326.5 662 L 329 663 L 330 665.5 L 330 716 L 333 717.5 L 329 718 L 329 665.5 L 326.5 663 L 325.5 664 L 290.5 665 L 289 663.5 L 289 598 L 247 598 L 247 692 L 249.5 693 L 287.5 693 L 289 694.5 L 289 748 L 327.5 748 L 329 749.5 L 329 810.5 L 330.5 812 L 369 812 L 369 827.5 Q 370.2 830.3 371.5 828 L 408.5 828 L 410 829.5 L 409 838.5 L 410 839.5 L 410 848.5 L 409 849.5 L 409 857.5 L 410 858.5 L 410 868 L 449 868 L 449 899.5 L 451.5 902 L 648 902 L 647.5 904 L 452.5 904 L 452 904.5 L 452 932.5 L 450 933 L 450 902 L 412.5 902 L 412 900 L 448 900 L 448 870 L 410.5 870 L 410 868.5 L 408 866.5 L 408 829 L 371.5 829 L 369.5 830 L 368 828.5 L 368 813 L 330.5 813 L 328 810.5 L 328 750 L 289.5 750 L 287 747.5 L 287 694 L 248.5 694 L 246 691.5 L 246 598.5 L 248.5 596 Z " /><path fill="rgb(223,63,62)" stroke="rgb(223,63,62)" stroke-width="1" opacity="0.996078431372549" d="M 690.5 599 L 728.5 599 L 730 600.5 L 730 629.5 L 731 630.5 L 729 629.5 L 729 600 L 690.5 600 L 690.5 599 Z " /><path fill="rgb(223,63,62)" stroke="rgb(223,63,62)" stroke-width="1" opacity="0.996078431372549" d="M 648.5 634 L 649 693.5 L 648 693.5 L 648.5 634 Z " /><path fill="rgb(223,63,62)" stroke="rgb(223,63,62)" stroke-width="1" opacity="0.996078431372549" d="M 335 716 L 367.5 716 L 370 718.5 L 370 749 L 408.5 749 Q 413 751 409.5 753 L 407.5 750 L 369.5 750 L 368 748.5 L 368 721.5 L 369 720.5 L 368 718 L 335.5 718 L 335 716 Z " /><path fill="rgb(223,63,62)" stroke="rgb(223,63,62)" stroke-width="1" opacity="0.996078431372549" d="M 247.5 724 L 250 726.5 L 250 782.5 L 251 783.5 L 249 784 L 249 726.5 L 247.5 724 Z " /><path fill="rgb(223,63,62)" stroke="rgb(223,63,62)" stroke-width="1" opacity="0.996078431372549" d="M 727.5 724 L 728 749.5 L 727 752 L 690.5 752 L 689 753.5 L 689 783.5 L 687.5 785 L 649 785 L 649 816.5 L 648.5 817 L 490 817 L 490 787.5 L 489 785 L 409 784.5 L 488.5 784 L 491 786.5 L 491 816 L 647.5 816 L 648 815.5 L 648 788.5 L 647 786.5 L 650.5 783 L 688 783 L 688 752.5 L 690.5 750 L 727 750 L 727.5 724 Z " /><path fill="rgb(223,63,62)" stroke="rgb(223,63,62)" stroke-width="1" opacity="0.996078431372549" d="M 728 754 L 767 754.5 L 730 755 L 730 783 L 765.5 783 L 767 782.5 L 765.5 784 L 729.5 784 L 728 782.5 L 728 754 Z " /><path fill="rgb(223,63,62)" stroke="rgb(223,63,62)" stroke-width="1" opacity="0.996078431372549" d="M 289.5 785 L 290 824.5 L 289 824.5 L 289.5 785 Z " /><path fill="rgb(223,63,62)" stroke="rgb(223,63,62)" stroke-width="1" opacity="0.996078431372549" d="M 689 833 L 727 833.5 L 690 834 L 690 864 L 726.5 864 L 726.5 865 L 690.5 865 L 689 863.5 L 689 833 Z " /><path fill="rgb(223,63,62)" stroke="rgb(223,63,62)" stroke-width="1" opacity="0.996078431372549" d="M 329.5 838 L 330 860.5 L 329 860.5 L 329.5 838 Z " /><path fill="rgb(223,63,62)" stroke="rgb(223,63,62)" stroke-width="1" opacity="0.996078431372549" d="M 649 868 L 687.5 868 L 688 870 L 651 870 L 651 899.5 L 649 900 L 649 868 Z " /><path fill="rgb(251,176,174)" stroke="rgb(251,176,174)" stroke-width="1" opacity="1" d="M 571.5 127 L 648.5 127 L 650 128.5 L 650 164.5 L 648.5 166 L 570 166 L 570 203 L 540.5 203 L 539.5 204 L 529 204 L 529 241.5 L 527 242 L 528 235.5 L 528 203.5 L 529.5 202 L 569 202 L 569 167 L 527 166.5 L 570 166 L 570.5 163 L 571 165 L 647.5 165 L 649 163.5 L 649 128 L 571 128 L 570.5 133 L 570 128.5 L 571.5 127 Z " /><path fill="rgb(251,176,174)" stroke="rgb(251,176,174)" stroke-width="1" opacity="1" d="M 491.5 166 L 525 166.5 L 491 167 L 491 203.5 L 489.5 205 L 452.5 205 L 451 206.5 L 451 241.5 L 450 244 L 412.5 244 L 412 244.5 L 412 254.5 L 411 255.5 L 411 282 L 409 281.5 L 410 280.5 L 410 244.5 L 412.5 242 L 450 242 L 450 205.5 L 451.5 204 L 488.5 204 L 490 202.5 L 490 167.5 L 491.5 166 Z " /><path fill="rgb(251,176,174)" stroke="rgb(251,176,174)" stroke-width="1" opacity="1" d="M 488 242 L 490 242.5 L 489 243.5 L 489 280.5 L 487.5 282 L 449 282 L 449 318.5 L 447.5 320 L 410 320 L 409.5 358 L 409 320.5 L 410.5 319 L 448 319 L 448 281 L 486.5 281 L 488 279.5 L 488 242 Z " /><path fill="rgb(251,176,174)" stroke="rgb(251,176,174)" stroke-width="1" opacity="1" d="M 369.5 282 L 370 321 L 367.5 322 L 332.5 322 L 332.5 321 L 367.5 321 L 369 319.5 L 369.5 282 Z " /><path fill="rgb(251,176,174)" stroke="rgb(251,176,174)" stroke-width="1" opacity="1" d="M 392.5 282 L 403 282.5 L 392.5 283 L 392.5 282 Z " /><path fill="rgb(251,176,174)" stroke="rgb(251,176,174)" stroke-width="1" opacity="1" d="M 491.5 320 L 526.5 320 L 529 321 L 529 397 L 495.5 397 L 489 398 L 489 433.5 L 487.5 435 L 452.5 435 L 451 433.5 L 451 360.5 L 452.5 359 L 489 359 L 489 322.5 L 491.5 320 Z M 491 321 L 490 360 L 454 360 L 452 362 L 452 434 L 488 434 L 488 398 L 490 396 L 528 396 L 528 323 L 527 321 L 491 321 Z " /><path fill="rgb(251,176,174)" stroke="rgb(251,176,174)" stroke-width="1" opacity="1" d="M 329.5 345 L 330 349.5 L 329 349.5 L 329.5 345 Z " /><path fill="rgb(251,176,174)" stroke="rgb(251,176,174)" stroke-width="1" opacity="1" d="M 369 358 L 375 358.5 Q 370.4 357.9 369 360.5 L 369 407.5 L 367.5 409 L 330.5 409 L 330 409.5 L 330 418.5 L 329 420.5 L 330 422.5 L 329 424.5 L 330 425.5 L 330 471.5 L 328.5 473 L 289 473 L 289.5 471 L 290.5 472 L 328 472 L 328 409.5 L 329.5 408 L 363.5 408 L 368 407 L 368 360.5 L 369 358 Z " /><path fill="rgb(251,176,174)" stroke="rgb(251,176,174)" stroke-width="1" opacity="1" d="M 382.5 358 L 388 358.5 L 382.5 359 L 382.5 358 Z " /><path fill="rgb(251,176,174)" stroke="rgb(251,176,174)" stroke-width="1" opacity="1" d="M 329.5 396 L 330 397.5 L 328.5 399 L 289.5 399 L 289.5 398 L 327.5 398 L 329.5 396 Z " /><path fill="rgb(251,176,174)" stroke="rgb(251,176,174)" stroke-width="1" opacity="1" d="M 771.5 434 L 807.5 434 L 809 435.5 L 809 534.5 L 808 537 L 769.5 537 L 768 535.5 L 768 503.5 L 770.5 501 L 769 503.5 L 769 535 L 808 535 L 808 435 L 771 435 L 770.5 497 L 770 435.5 L 771.5 434 Z " /><path fill="rgb(251,176,174)" stroke="rgb(251,176,174)" stroke-width="1" opacity="1" d="M 731.5 537 L 766.5 537 L 768 538.5 L 768 568 L 729 568 L 729 539.5 L 731.5 537 Z " /><path fill="rgb(251,176,174)" stroke="rgb(251,176,174)" stroke-width="1" opacity="1" d="M 691.5 570 L 728 570 L 728 597.5 L 726.5 599 L 690 599 L 690 571.5 L 691.5 570 Z " /><path fill="rgb(239,68,68)" stroke="rgb(239,68,68)" stroke-width="1" opacity="1" d="M 611.5 91 L 612.5 92 L 622.5 92 L 625.5 91 L 626.5 92 L 686.5 92 L 688 91.5 L 688 165 L 650.5 165 L 648 167.5 L 648 242 L 609 242 L 609 357 L 570.5 357 L 569 358.5 L 569 571 L 609 571 L 609 633.5 L 609.5 634 L 648 634 L 648 694 L 688 694 L 688 724 L 727 724 L 727 750 L 690.5 750 L 688 752.5 L 688 783 L 650.5 783 L 647 787.5 L 648 788.5 L 648 816 L 491.5 816 L 491 815.5 L 491 786.5 L 488.5 784 L 409 784 L 409 753.5 L 411 751.5 L 408.5 749 L 370 749 L 370 718.5 L 367.5 716 L 335.5 716 L 335 718 L 333.5 718 L 330 716 L 330 665.5 L 329 663 L 325.5 662 L 324.5 663 L 291 663 L 291 598 Q 287.9 598.8 288.5 596 L 248.5 596 L 246 598.5 L 246 691.5 L 248.5 694 L 287 694 L 287 747.5 L 289.5 750 L 328 750 L 328 810.5 L 330.5 813 L 368 813 L 368 828.5 L 369.5 830 L 371.5 829 L 408 829 L 408 866.5 L 410 870 L 448 870 L 448 900 L 370 900 L 370 862 L 330 862 L 330 826.5 L 328.5 825 L 290 825 L 290 785.5 L 288.5 784 L 251.5 784 L 250 782.5 L 250 726.5 L 247.5 724 L 209.5 724 L 209 723.5 L 209 472 L 247.5 472 L 249 470.5 L 249 398.5 Q 249.1 397.4 254.5 398 L 255.5 397 L 288.5 397 L 290 395.5 L 291 379.5 L 290 378.5 L 290 359.5 L 291 358.5 L 291 322 L 330 322 L 330 344.5 L 329 349.5 L 330 350.5 L 330 395.5 L 327.5 398 L 289 398 L 289 473 L 328.5 473 L 330 471.5 L 330 425.5 L 329 423.5 L 330 421.5 L 329 419.5 L 330 418.5 L 330 409 L 367.5 409 L 369 407.5 L 369 360.5 L 370.5 359 L 381.5 358 Q 382.8 360.3 387.5 359 L 388.5 358 L 410 358 L 410 320 L 447.5 320 L 449 318.5 L 449 282 L 487.5 282 L 489 280.5 L 489 243.5 L 490.5 242 L 529 242 L 529 204.5 L 529.5 204 L 539.5 204 L 540.5 203 L 570 203 L 570 166 L 530 166 L 530 129.5 L 531.5 128 L 570 128 L 570 166 L 648.5 166 L 650 164.5 L 650 128.5 L 648.5 127 L 610 127 L 611 124.5 L 611 103.5 Q 608.5 102 610 96.5 L 611.5 91 Z M 492 320 L 489 323 L 489 359 L 453 359 L 451 361 L 451 434 L 453 435 L 488 435 L 489 434 L 489 398 L 496 397 L 529 397 L 529 321 L 527 320 L 492 320 Z " /><path fill="rgb(239,68,68)" stroke="rgb(239,68,68)" stroke-width="1" opacity="1" d="M 452 168 L 490 168 L 490 202.5 L 488.5 204 L 451.5 204 L 450 205.5 L 450 242 L 412 242 L 412 206 L 448.5 206 L 452 202.5 L 452 168 Z " /><path fill="rgb(239,68,68)" stroke="rgb(239,68,68)" stroke-width="1" opacity="1" d="M 370 245 L 410 245 L 410 280.5 L 408.5 282 L 370 282 L 370 245 Z " /><path fill="rgb(239,68,68)" stroke="rgb(239,68,68)" stroke-width="1" opacity="1" d="M 330 284 L 369 284 L 369 319.5 L 367.5 321 L 330 321 L 330 284 Z " /><path fill="rgb(239,68,68)" stroke="rgb(239,68,68)" stroke-width="1" opacity="1" d="M 770 399 L 806.5 399 L 808 400.5 L 807 402.5 L 807 431.5 Q 809.3 432.7 806.5 434 L 771.5 434 L 770 432.5 L 770 399 Z " /><path fill="rgb(239,68,68)" stroke="rgb(239,68,68)" stroke-width="1" opacity="1" d="M 809 436 L 846 436 L 846 536 L 809.5 536 L 807 538.5 Q 805.4 548.6 808 554.5 L 807 555.5 L 807 596.5 L 807.5 598 L 768.5 598 L 767 599.5 L 767 630 L 732.5 630 L 732 631.5 L 731 631.5 L 730 629.5 L 730 600.5 L 728.5 599 L 727 598.5 L 728 597.5 L 728 570 L 691.5 570 L 690.5 571 L 690 539 L 729 539 L 729 568 L 768 568 L 768 538.5 L 766.5 537 L 731 537 L 731 504 L 766.5 504 L 767.5 503 L 768 535.5 L 769.5 537 L 807.5 537 L 808 535.5 L 809 534.5 L 809 436 Z " /><path fill="rgb(239,68,68)" stroke="rgb(239,68,68)" stroke-width="1" opacity="1" d="M 730 755 L 767 755 L 767 781.5 L 765.5 783 L 730 783 L 730 755 Z " /><path fill="rgb(239,68,68)" stroke="rgb(239,68,68)" stroke-width="1" opacity="1" d="M 690 834 L 727 834 L 727 864 L 690 864 L 690 834 Z " /><path fill="rgb(239,68,68)" stroke="rgb(239,68,68)" stroke-width="1" opacity="1" d="M 651 870 L 688 870 L 688 900 L 651 900 L 651 870 Z " /><path fill="rgb(239,68,68)" stroke="rgb(239,68,68)" stroke-width="1" opacity="1" d="M 452 904 L 647.5 904 L 648 904.5 L 648 933 L 452.5 933 L 452 932.5 L 452 904 Z " /><path fill="rgb(253,221,219)" stroke="rgb(253,221,219)" stroke-width="1" opacity="1" d="M 648.5 128 L 649 163.5 L 647.5 165 L 571 165 L 570 162.5 L 570 133.5 L 571.5 129 L 572 164 L 646.5 164 L 648 162.5 L 648.5 128 Z " /><path fill="rgb(253,221,219)" stroke="rgb(253,221,219)" stroke-width="1" opacity="1" d="M 491.5 167 L 568.5 167 Q 569.6 167.1 569 172.5 L 568 172.5 Q 568.5 168 567.5 168 L 491.5 168 L 491.5 167 Z " /><path fill="rgb(253,221,219)" stroke="rgb(253,221,219)" stroke-width="1" opacity="1" d="M 568.5 183 L 569 186.5 L 568 186.5 L 568.5 183 Z " /><path fill="rgb(253,221,219)" stroke="rgb(253,221,219)" stroke-width="1" opacity="1" d="M 528.5 202 L 528 203.5 L 527.5 236 L 527 203.5 L 528.5 202 Z " /><path fill="rgb(253,221,219)" stroke="rgb(253,221,219)" stroke-width="1" opacity="1" d="M 490.5 204 L 491 206 L 452 206 L 452 242.5 Q 451.5 245.5 447.5 245 L 447.5 244 Q 450.8 245.1 450 242.5 L 451 241.5 L 451 206.5 L 452.5 205 L 489.5 205 L 490.5 204 Z " /><path fill="rgb(253,221,219)" stroke="rgb(253,221,219)" stroke-width="1" opacity="1" d="M 500.5 240 L 502.5 241 L 514.5 241 L 515.5 240 L 527 240 L 526.5 242 L 489.5 242 L 489.5 241 L 499.5 241 L 500.5 240 Z " /><path fill="rgb(253,221,219)" stroke="rgb(253,221,219)" stroke-width="1" opacity="1" d="M 487.5 242 L 488 279.5 L 486.5 281 L 448.5 281 L 448.5 280 L 469.5 280 L 473.5 279 L 474.5 280 L 484.5 280 L 487 279 L 487.5 242 Z " /><path fill="rgb(253,221,219)" stroke="rgb(253,221,219)" stroke-width="1" opacity="1" d="M 411.5 255 L 412 281.5 L 409.5 284 L 377.5 284 L 370 282.5 L 391.5 282 L 392.5 283 L 402.5 283 L 403.5 282 L 411 282 L 411.5 255 Z " /><path fill="rgb(253,221,219)" stroke="rgb(253,221,219)" stroke-width="1" opacity="1" d="M 447.5 282 L 448 319 L 410.5 319 L 409 320.5 L 409 358 L 369.5 358 L 369 359.5 L 368 360.5 L 368 407 L 363.5 408 L 329.5 408 L 328 409.5 L 328 472 L 290.5 472 L 289 470.5 L 289 399 L 328.5 399 L 331 398 L 332 394.5 L 332.5 364 L 333 387.5 L 334.5 389 L 337 389 Q 336 386 339 387 L 339 379.5 L 347.5 372 L 353 372 Q 351.8 369 355.5 370 L 361 365.5 L 364 361.5 L 364 359 Q 367 357.8 366 361.5 L 367 361.5 Q 365.5 357.1 368.5 358 L 369.5 357 L 408 357 L 408 320.5 L 410.5 318 L 445.5 318 L 447 316.5 L 447.5 282 Z M 332 406 L 332 407 L 334 407 L 332 406 Z " /><path fill="rgb(253,221,219)" stroke="rgb(253,221,219)" stroke-width="1" opacity="1" d="M 330.5 321 L 332 321.5 L 330.5 322 L 330.5 321 Z " /><path fill="rgb(253,221,219)" stroke="rgb(253,221,219)" stroke-width="1" opacity="1" d="M 368.5 321 L 370 321.5 L 368.5 322 L 368.5 321 Z " /><path fill="rgb(253,221,219)" stroke="rgb(253,221,219)" stroke-width="1" opacity="1" d="M 491.5 321 L 526.5 321 L 528 322.5 L 527.5 396 L 527 322 L 491.5 322 L 491.5 321 Z " /><path fill="rgb(253,221,219)" stroke="rgb(253,221,219)" stroke-width="1" opacity="1" d="M 340.5 323 L 346 323.5 L 340.5 324 L 340.5 323 Z " /><path fill="rgb(253,221,219)" stroke="rgb(253,221,219)" stroke-width="1" opacity="1" d="M 352.5 323 L 362 323.5 L 352.5 324 L 352.5 323 Z " /><path fill="rgb(253,221,219)" stroke="rgb(253,221,219)" stroke-width="1" opacity="1" d="M 490.5 334 L 491 359.5 L 489.5 361 L 453.5 361 L 453.5 360 L 490 360 L 490.5 334 Z " /><path fill="rgb(253,221,219)" stroke="rgb(253,221,219)" stroke-width="1" opacity="1" d="M 395.5 355 L 397 355.5 L 395.5 356 L 395.5 355 Z " /><path fill="rgb(253,221,219)" stroke="rgb(253,221,219)" stroke-width="1" opacity="1" d="M 452.5 368 L 453 375.5 L 452 375.5 L 452.5 368 Z " /><path fill="rgb(253,221,219)" stroke="rgb(253,221,219)" stroke-width="1" opacity="1" d="M 488.5 396 L 488 397.5 L 488 434 L 452.5 434 L 452.5 433 L 487 433 L 487 397.5 L 488.5 396 Z " /><path fill="rgb(253,221,219)" stroke="rgb(253,221,219)" stroke-width="1" opacity="1" d="M 806.5 435 L 808 435.5 L 808 535 L 771.5 535 L 771 532.5 L 770 531.5 L 769 510.5 Q 771.3 509.2 770 504.5 Q 767.8 503.2 770.5 502 L 772 502.5 L 771 489.5 L 772 488.5 L 772.5 441 L 773.5 445 L 774 443 L 776.5 444 L 777 437.5 L 776.5 436 L 805.5 436 L 806.5 435 Z " /><path fill="rgb(187,38,38)" stroke="rgb(187,38,38)" stroke-width="1" opacity="0.996078431372549" d="M 609.5 93 L 610 125.5 L 609 125.5 L 609.5 93 Z " /><path fill="rgb(187,38,38)" stroke="rgb(187,38,38)" stroke-width="1" opacity="0.996078431372549" d="M 650.5 165 L 688 165.5 L 650.5 166 L 650.5 165 Z " /><path fill="rgb(187,38,38)" stroke="rgb(187,38,38)" stroke-width="1" opacity="0.996078431372549" d="M 451.5 167 L 489 167.5 L 451 168 L 451 203.5 L 449.5 205 L 412 204.5 L 450 204 L 450 168.5 L 451.5 167 Z " /><path fill="rgb(187,38,38)" stroke="rgb(187,38,38)" stroke-width="1" opacity="0.996078431372549" d="M 649.5 167 L 650 241.5 L 649 241.5 L 649.5 167 Z " /><path fill="rgb(187,38,38)" stroke="rgb(187,38,38)" stroke-width="1" opacity="0.996078431372549" d="M 370.5 244 L 408 244.5 L 370 245 L 369.5 281 L 369 245.5 L 370.5 244 Z " /><path fill="rgb(187,38,38)" stroke="rgb(187,38,38)" stroke-width="1" opacity="0.996078431372549" d="M 368.5 282 L 367.5 284 L 330 283.5 L 367.5 283 L 368.5 282 Z " /><path fill="rgb(187,38,38)" stroke="rgb(187,38,38)" stroke-width="1" opacity="0.996078431372549" d="M 329.5 320 L 328.5 322 L 290 322 L 290 358.5 L 289 358.5 L 289 322.5 L 290.5 321 L 328.5 321 L 329.5 320 Z " /><path fill="rgb(187,38,38)" stroke="rgb(187,38,38)" stroke-width="1" opacity="0.996078431372549" d="M 570.5 358 L 574 358.5 L 570 359 L 569.5 569 L 569 359.5 L 570.5 358 Z " /><path fill="rgb(187,38,38)" stroke="rgb(187,38,38)" stroke-width="1" opacity="0.996078431372549" d="M 584.5 358 L 605 358.5 L 584.5 359 L 584.5 358 Z " /><path fill="rgb(187,38,38)" stroke="rgb(187,38,38)" stroke-width="1" opacity="0.996078431372549" d="M 289.5 380 L 290 382.5 L 289 382.5 L 289.5 380 Z " /><path fill="rgb(187,38,38)" stroke="rgb(187,38,38)" stroke-width="1" opacity="0.996078431372549" d="M 250.5 396 L 289 396.5 L 250.5 397 L 249 398.5 L 248.5 450 L 248 397 L 250.5 396 Z " /><path fill="rgb(187,38,38)" stroke="rgb(187,38,38)" stroke-width="1" opacity="0.996078431372549" d="M 784.5 398 L 795 398.5 L 784.5 399 L 784.5 398 Z " /><path fill="rgb(187,38,38)" stroke="rgb(187,38,38)" stroke-width="1" opacity="0.996078431372549" d="M 796.5 398 L 808 398.5 L 796.5 399 L 796.5 398 Z " /><path fill="rgb(187,38,38)" stroke="rgb(187,38,38)" stroke-width="1" opacity="0.996078431372549" d="M 810.5 435 L 820 435.5 L 810.5 436 L 810.5 435 Z " /><path fill="rgb(187,38,38)" stroke="rgb(187,38,38)" stroke-width="1" opacity="0.996078431372549" d="M 842.5 435 Q 846.3 434.3 847 436.5 L 847 472 L 876.5 472 L 880.5 473 L 887 472 L 887 691.5 L 886.5 692 L 847.5 692 L 846 693.5 L 846 722 L 809 722 L 809 694.5 L 807.5 693 L 770.5 693 L 769 691.5 Q 767.7 686.8 770 685.5 L 770 665.5 L 769 663 L 731 663 L 731 632.5 L 729.5 631 L 691.5 631 L 690 629.5 L 690 600 L 729 600 L 729 629.5 L 731.5 632 L 768 632 L 768 600.5 L 769.5 599 L 807.5 599 L 809 597.5 L 808 596.5 L 808 555.5 L 809 552.5 L 808 551.5 L 808 538 L 845.5 538 L 847 536.5 L 847 472.5 L 846 471.5 L 846 436 Q 841.6 437 842.5 435 Z " /><path fill="rgb(187,38,38)" stroke="rgb(187,38,38)" stroke-width="1" opacity="0.996078431372549" d="M 248.5 453 L 249 464.5 L 248 464.5 L 248.5 453 Z " /><path fill="rgb(187,38,38)" stroke="rgb(187,38,38)" stroke-width="1" opacity="0.996078431372549" d="M 209.5 470 L 216.5 471 L 217.5 470 L 231.5 470 L 232.5 471 L 242.5 471 L 247.5 470 L 247.5 471 L 244.5 472 L 227.5 472 L 222.5 471 Q 220.8 473.8 214.5 472 L 209 471 L 209 723.5 L 209.5 724 L 246.5 724 L 249 726.5 L 249 784 L 289 784.5 L 249.5 785 L 248 783.5 L 248 726.5 L 246.5 725 L 208.5 725 L 208 724.5 L 208 471.5 L 209.5 470 Z " /><path fill="rgb(187,38,38)" stroke="rgb(187,38,38)" stroke-width="1" opacity="0.996078431372549" d="M 729.5 511 L 730 516.5 L 729 516.5 L 729.5 511 Z " /><path fill="rgb(187,38,38)" stroke="rgb(187,38,38)" stroke-width="1" opacity="0.996078431372549" d="M 729.5 529 L 730 533.5 L 729 533.5 L 729.5 529 Z " /><path fill="rgb(187,38,38)" stroke="rgb(187,38,38)" stroke-width="1" opacity="0.996078431372549" d="M 729.5 536 L 730 537.5 L 729 537.5 L 729.5 536 Z " /><path fill="rgb(187,38,38)" stroke="rgb(187,38,38)" stroke-width="1" opacity="0.996078431372549" d="M 690.5 538 L 728 538.5 L 690.5 539 L 690.5 538 Z " /><path fill="rgb(187,38,38)" stroke="rgb(187,38,38)" stroke-width="1" opacity="0.996078431372549" d="M 247 598 L 289 598 L 289 663.5 L 290.5 665 L 307.5 665 L 308.5 664 L 325.5 664 L 326.5 663 L 329 665.5 L 329 718 L 367.5 718 L 368 719.5 L 368 721.5 L 368 748.5 L 369.5 750 L 407.5 750 L 409 751.5 L 409 785 L 488.5 785 L 489 786.5 L 490 787.5 L 490 817 L 648.5 817 L 649 816.5 L 649 785 L 687.5 785 L 689 783.5 L 689 753.5 L 690.5 752 L 726.5 752 L 727 750.5 L 728 750.5 L 728.5 752 L 766.5 752 L 767 754 L 728 754 L 728 782.5 L 729.5 784 L 765.5 784 L 767 783.5 L 767 832 L 730.5 832 L 728 833 L 727.5 865 L 727 833 L 689 833 L 689 863.5 L 690 865.5 L 687.5 868 L 649 868 L 649 900 L 687.5 900 L 687.5 901 L 650.5 901 L 649 902.5 L 648.5 933 L 648 902 L 451.5 902 L 449 899.5 L 449 868 L 410.5 868 L 410 867.5 L 410 858.5 L 409 857.5 L 409 849.5 L 410 848.5 L 410 839.5 Q 407.5 838 409 832.5 L 410 829.5 L 408.5 828 L 371.5 828 Q 370.2 830.3 369 827.5 L 369 812 L 330.5 812 L 329 810.5 L 329 749.5 L 327.5 748 L 289 748 L 289 694.5 L 287.5 693 L 249.5 693 L 247 692 L 247 598 Z " /><path fill="rgb(187,38,38)" stroke="rgb(187,38,38)" stroke-width="1" opacity="0.996078431372549" d="M 609.5 632 L 615 633.5 L 610.5 634 L 609.5 632 Z " /><path fill="rgb(187,38,38)" stroke="rgb(187,38,38)" stroke-width="1" opacity="0.996078431372549" d="M 624.5 633 L 629 633.5 L 624.5 634 L 624.5 633 Z " /><path fill="rgb(187,38,38)" stroke="rgb(187,38,38)" stroke-width="1" opacity="0.996078431372549" d="M 636.5 633 L 648.5 633 L 650 634.5 L 650 692.5 L 651 693.5 L 649 694 L 649 634.5 L 648.5 634 L 636.5 634 L 636.5 633 Z " /><path fill="rgb(187,38,38)" stroke="rgb(187,38,38)" stroke-width="1" opacity="0.996078431372549" d="M 688.5 722 L 690.5 723 L 728 723.5 L 689.5 724 L 688.5 722 Z " /><path fill="rgb(187,38,38)" stroke="rgb(187,38,38)" stroke-width="1" opacity="0.996078431372549" d="M 289.5 825 L 329 825.5 L 289.5 826 L 289.5 825 Z " /><path fill="rgb(187,38,38)" stroke="rgb(187,38,38)" stroke-width="1" opacity="0.996078431372549" d="M 329.5 827 L 330 835.5 L 329 835.5 L 329.5 827 Z " /><path fill="rgb(187,38,38)" stroke="rgb(187,38,38)" stroke-width="1" opacity="0.996078431372549" d="M 329.5 861 L 330.5 862 L 368.5 862 L 370 863.5 L 370 900 L 411.5 900 L 411.5 901 L 370.5 901 L 369 899.5 L 369 863 L 330.5 863 L 329.5 861 Z " /><path fill="rgb(187,38,38)" stroke="rgb(187,38,38)" stroke-width="1" opacity="0.996078431372549" d="M 412 902 L 450 902 L 450 933.5 L 448.5 935 L 412 935 L 412 902 Z " /></svg>