<svg xmlns="http://www.w3.org/2000/svg" width="600" height="457" viewBox="0 0 600 457" version="1.1">
	<path d="M 438.220 1.524 C 435.316 2.186, 432.728 2.939, 432.469 3.197 C 431.730 3.937, 435.884 15.821, 439.205 22.467 C 445.669 35.401, 454.399 44.135, 464.726 47.999 C 470.031 49.983, 472.136 50.066, 516.378 50.027 L 562.500 49.986 568.509 52.837 C 578.175 57.422, 583.911 65.374, 586.557 77.856 C 587.332 81.510, 587.973 85.285, 587.983 86.244 C 587.999 87.893, 581.179 87.988, 462.250 87.997 C 326.129 88.007, 328.648 87.917, 308.146 93.479 C 295.161 97.002, 294.745 97.319, 299.742 99.869 C 305.726 102.921, 316.710 111.459, 322.831 117.813 C 353.466 149.621, 357.339 202.534, 332.040 243.643 C 326.385 252.832, 315.420 265.021, 306.933 271.551 C 300.232 276.708, 287.830 283.098, 280.068 285.394 C 270.950 288.090, 271.074 287.157, 280.472 282.357 C 291.215 276.871, 298.255 271.578, 307.061 262.364 C 315.240 253.808, 319.156 248.099, 323.997 237.673 C 327.447 230.243, 332.039 214.921, 331.973 211.060 C 331.959 210.202, 330.530 212.112, 328.797 215.305 C 322.360 227.171, 308.423 236.806, 294.250 239.188 C 277.061 242.078, 257.904 233.894, 247.933 219.402 C 243.859 213.481, 239.995 202.891, 240.024 197.727 L 240.047 193.500 242.447 199.335 C 249.079 215.467, 262.674 226.193, 280.158 229.090 C 286.290 230.106, 288.924 230.111, 293.371 229.116 C 307.802 225.887, 318.595 214.793, 324.617 197 C 325.993 192.936, 326.474 188.628, 326.461 180.500 C 326.440 167.353, 324.068 157.830, 317.758 145.557 C 312.484 135.300, 299.713 122.102, 289.667 116.527 C 281.197 111.826, 267.983 107.513, 257.678 106.084 C 247.895 104.728, 0.666 104.548, 1.167 105.898 C 1.350 106.391, 7.125 116.162, 14 127.610 C 21.812 140.617, 28.409 150.372, 31.589 153.617 C 44.747 167.041, 68.889 173.193, 125 177.420 L 142.500 178.738 94.167 178.869 C 67.583 178.941, 45.983 179.337, 46.167 179.750 C 46.650 180.837, 66.802 214.726, 69.951 219.748 C 73.034 224.663, 81.513 232.201, 87.255 235.130 C 94.562 238.858, 115.389 244.233, 130.500 246.292 C 132.150 246.516, 122.813 246.768, 109.750 246.850 C 93.265 246.954, 86 247.336, 86 248.098 C 86 250.423, 97.780 265.846, 105.019 273 C 110.201 278.120, 115.130 281.825, 120.554 284.678 C 132.877 291.157, 138.191 291.999, 166.812 292.008 L 191.500 292.015 193.786 300.221 C 200.515 324.375, 215.747 349.692, 235.498 369.551 C 262.113 396.310, 295.434 412.196, 334.974 416.976 C 339.634 417.539, 356.734 418.011, 372.974 418.025 L 402.500 418.051 405.973 425.275 C 410.522 434.740, 420.941 445.369, 430.077 449.866 C 442.075 455.773, 443.881 455.975, 484.750 455.988 L 522 456 522 452.523 C 522 448.121, 517.837 436.979, 513.898 430.842 C 507.591 421.012, 495.874 411.807, 485.527 408.552 C 482.487 407.596, 480 406.676, 480 406.507 C 480 406.339, 483.488 405.434, 487.750 404.498 C 513.226 398.900, 532 376.845, 532 352.517 L 532 344.886 487.750 345.221 C 439.494 345.587, 442.320 345.272, 429.036 351.771 C 422.183 355.123, 411.414 365.633, 407.206 373.075 C 405.472 376.140, 403.081 382.283, 401.893 386.724 L 399.731 394.800 394.362 392.953 C 372.413 385.401, 352.698 365.854, 345.426 344.433 C 339.453 326.842, 339.641 307.360, 345.950 290.129 C 353.051 270.733, 372.733 251.051, 392.129 243.950 C 402.663 240.093, 411.128 239, 430.458 239 C 440.656 239, 448.997 238.662, 448.993 238.250 C 448.989 237.838, 447.414 236.429, 445.492 235.120 C 439.982 231.368, 429.863 220.086, 425.652 213.001 C 420.235 203.888, 416.262 191.280, 415.568 181 L 414.993 172.500 416.858 179.777 C 424.705 210.401, 450.999 233.548, 481.674 236.834 C 495.444 238.310, 513.381 233.944, 531.375 224.738 C 565.515 207.272, 588.699 177.092, 597.625 138.500 C 600.048 128.021, 600.722 85.146, 598.619 75.172 C 594.747 56.799, 585.327 45.163, 570.199 40.067 C 564.352 38.097, 561.885 37.999, 517.782 37.978 C 474.382 37.957, 471.238 37.837, 467.291 36.045 C 458.710 32.150, 450.721 21.277, 445.672 6.624 L 443.500 0.320 438.220 1.524 M 492.656 137.288 C 488.126 141.560, 487.091 146.499, 489.647 151.642 C 492.153 156.686, 495.743 159.108, 500.815 159.178 C 510.329 159.309, 516.790 149.296, 512.520 141.039 C 510.056 136.275, 506.313 134, 500.936 134 C 496.890 134, 495.599 134.513, 492.656 137.288" stroke="none" fill="#EF4444" fill-rule="evenodd"/>
</svg>