<svg width="148" height="42" viewBox="0 0 148 42" fill="none" xmlns="http://www.w3.org/2000/svg">
<rect x="1" y="1" width="40" height="40" rx="10" fill="black"/>
<rect x="1" y="1" width="40" height="40" rx="10" stroke="white" stroke-opacity="0.8" stroke-width="2"/>
<g filter="url(#filter0_i_899_105)">
<path fill-rule="evenodd" clip-rule="evenodd" d="M19.7759 6.56056C21.0745 5.84123 22.684 6.36168 23.3708 7.72302L35.0338 30.8396C35.7207 32.2009 35.2247 33.8876 33.9261 34.607C32.6275 35.3263 31.018 34.8058 30.3312 33.4445L18.6682 10.3279C17.9813 8.9666 18.4773 7.27989 19.7759 6.56056Z" fill="url(#paint0_linear_899_105)"/>
</g>
<path fill-rule="evenodd" clip-rule="evenodd" d="M22.2069 6.55989C23.5057 7.27939 24.0021 8.96613 23.3155 10.3273L11.658 33.4418C10.9715 34.803 9.3621 35.3232 8.06329 34.6037C6.76447 33.8842 6.26811 32.1975 6.95462 30.8363L18.6121 7.72183C19.2986 6.36061 20.9081 5.8404 22.2069 6.55989Z" fill="url(#paint1_linear_899_105)"/>
<path fill-rule="evenodd" clip-rule="evenodd" d="M35.9087 17.958C36.5724 19.3315 36.0481 21.009 34.7375 21.7046L10.7383 34.4436C9.42768 35.1393 7.82715 34.5897 7.16337 33.2162C6.4996 31.8426 7.02394 30.1652 8.33452 29.4695L32.3338 16.7306C33.6443 16.0349 35.2449 16.5844 35.9087 17.958Z" fill="url(#paint2_linear_899_105)"/>
<path fill-rule="evenodd" clip-rule="evenodd" d="M19.7759 6.56056C21.0745 5.84123 22.684 6.36168 23.3708 7.72302L35.0338 30.8396C35.7207 32.2009 35.2247 33.8876 33.9261 34.607C32.6275 35.3263 31.018 34.8058 30.3312 33.4445L18.6682 10.3279C17.9813 8.9666 18.4773 7.27989 19.7759 6.56056Z" fill="url(#paint3_linear_899_105)"/>
<path fill-rule="evenodd" clip-rule="evenodd" d="M22.2069 6.55989C23.5057 7.27939 24.0021 8.96613 23.3155 10.3273L11.658 33.4418C10.9715 34.803 9.3621 35.3232 8.06329 34.6037C6.76447 33.8842 6.26811 32.1975 6.95462 30.8363L18.6121 7.72183C19.2986 6.36061 20.9081 5.8404 22.2069 6.55989Z" fill="url(#paint4_linear_899_105)"/>
<path fill-rule="evenodd" clip-rule="evenodd" d="M35.9087 17.959C36.5724 19.3325 36.0481 21.0099 34.7375 21.7056L10.7383 34.4446C9.42768 35.1402 7.82715 34.5907 7.16337 33.2172C6.4996 31.8436 7.02394 30.1662 8.33452 29.4705L32.3338 16.7316C33.6443 16.0359 35.2449 16.5854 35.9087 17.959Z" fill="url(#paint5_linear_899_105)"/>
<path d="M49 32.0765L53.3355 9.92411C53.3556 9.83812 53.4059 9.79513 53.4864 9.79513H57.8629C57.9434 9.79513 57.9937 9.83812 58.0138 9.92411L62.1984 32.0765C62.2185 32.184 62.1783 32.2377 62.0776 32.2377H58.5792C58.4987 32.2377 58.4484 32.184 58.4282 32.0765L57.6516 27.6478H53.5468L52.7701 32.0765C52.75 32.184 52.6997 32.2377 52.6192 32.2377H49.1207C49.0402 32.2377 49 32.184 49 32.0765ZM54.1504 24.1975H57.048L55.8105 17.2115L55.6294 16.0184L55.5086 17.2115L54.1504 24.1975Z" fill="white"/>
<path d="M63.5909 32.2377C63.4903 32.2377 63.44 32.184 63.44 32.0765L63.4702 9.92411C63.4702 9.83812 63.5104 9.79513 63.5909 9.79513H66.9714C67.0519 9.79513 67.0921 9.83812 67.0921 9.92411L67.1223 32.0765C67.1223 32.184 67.0821 32.2377 67.0016 32.2377H63.5909Z" fill="white"/>
<path d="M79.5367 32.5602C78.4502 32.5602 77.4541 32.27 76.5486 31.6896C75.6633 31.0877 74.949 30.303 74.4057 29.3357C73.8825 28.3468 73.6209 27.2612 73.6209 26.0789V24.5956C73.6209 24.4882 73.6712 24.4344 73.7718 24.4344H77.1523C77.2328 24.4344 77.273 24.4882 77.273 24.5956V26.0789C77.273 26.7883 77.4944 27.401 77.937 27.9169C78.3797 28.4113 78.913 28.6585 79.5367 28.6585C80.1605 28.6585 80.6937 28.4006 81.1364 27.8846C81.5791 27.3687 81.8004 26.7668 81.8004 26.0789C81.8004 25.2835 81.3175 24.5956 80.3517 24.0152C80.0297 23.8218 79.5267 23.5208 78.8425 23.1124C78.1584 22.7039 77.5145 22.317 76.9108 21.9515C75.8041 21.2636 74.9791 20.4038 74.4358 19.3719C73.9127 18.3186 73.6511 17.1363 73.6511 15.825C73.6511 14.6211 73.9227 13.5463 74.466 12.6005C75.0093 11.6331 75.7236 10.87 76.609 10.311C77.5145 9.75213 78.4904 9.47267 79.5367 9.47267C80.6032 9.47267 81.5791 9.76288 82.4645 10.3433C83.37 10.9022 84.0843 11.6653 84.6074 12.6327C85.1507 13.5786 85.4224 14.6426 85.4224 15.825V18.4691C85.4224 18.5551 85.3821 18.598 85.3017 18.598H81.9212C81.8407 18.598 81.8004 18.5551 81.8004 18.4691L81.7703 15.825C81.7703 15.0726 81.5489 14.4599 81.1062 13.987C80.6636 13.5141 80.1404 13.2776 79.5367 13.2776C78.913 13.2776 78.3797 13.5356 77.937 14.0515C77.4944 14.5459 77.273 15.1371 77.273 15.825C77.273 16.5344 77.4139 17.1255 77.6956 17.5984C77.9773 18.0714 78.4904 18.5228 79.2349 18.9527C79.3355 19.0172 79.5267 19.1355 79.8084 19.3074C80.1102 19.4579 80.4322 19.6406 80.7742 19.8556C81.1163 20.0491 81.4181 20.2211 81.6797 20.3715C81.9614 20.522 82.1325 20.6187 82.1928 20.6617C83.1989 21.2636 83.9937 22.0053 84.5773 22.8867C85.1608 23.7465 85.4526 24.8106 85.4526 26.0789C85.4526 27.3042 85.1809 28.4113 84.6376 29.4002C84.1145 30.3675 83.4001 31.1414 82.4947 31.7218C81.6093 32.2807 80.6233 32.5602 79.5367 32.5602Z" fill="white"/>
<path d="M87.2278 32.2377C87.1473 32.2377 87.1071 32.184 87.1071 32.0765L87.1373 9.92411C87.1373 9.83812 87.1775 9.79513 87.258 9.79513H96.9467C97.0271 9.79513 97.0674 9.84887 97.0674 9.95635V13.5678C97.0674 13.6538 97.0271 13.6968 96.9467 13.6968H90.7592V18.727H96.3538C96.4343 18.727 96.4746 18.77 96.4746 18.856L96.5048 22.4997C96.5048 22.5857 96.4645 22.6287 96.384 22.6287H90.7592V28.2716H96.9768C97.0573 28.2716 97.0976 28.3253 97.0976 28.4328V32.1088C97.0976 32.1947 97.0573 32.2377 96.9768 32.2377H87.2278Z" fill="white"/>
<path d="M104.271 32.5602C103.164 32.5602 102.158 32.27 101.252 31.6896C100.367 31.0877 99.6628 30.2923 99.1396 29.3034C98.6165 28.3146 98.3549 27.2075 98.3549 25.9822L98.3851 15.9217C98.3851 14.7394 98.6366 13.6645 99.1396 12.6972C99.6628 11.7083 100.367 10.9237 101.252 10.3433C102.158 9.74138 103.164 9.44043 104.271 9.44043C105.377 9.44043 106.373 9.73064 107.259 10.311C108.144 10.8915 108.848 11.6761 109.372 12.6649C109.895 13.6323 110.156 14.7179 110.156 15.9217V17.405C110.156 17.491 110.116 17.534 110.036 17.534H106.655C106.575 17.534 106.534 17.491 106.534 17.405V15.9217C106.534 15.2123 106.313 14.5997 105.87 14.0837C105.448 13.5678 104.915 13.3098 104.271 13.3098C103.546 13.3098 102.993 13.5786 102.611 14.116C102.228 14.6319 102.037 15.2338 102.037 15.9217V25.9822C102.037 26.7776 102.248 27.4225 102.671 27.9169C103.114 28.4113 103.647 28.6585 104.271 28.6585C104.915 28.6585 105.448 28.3898 105.87 27.8524C106.313 27.2935 106.534 26.6701 106.534 25.9822V23.9061C106.534 23.8201 106.575 23.7771 106.655 23.7771H110.066C110.146 23.7771 110.187 23.8201 110.187 23.9061V25.9822C110.187 27.2075 109.915 28.3146 109.372 29.3034C108.848 30.2923 108.144 31.0877 107.259 31.6896C106.373 32.27 105.377 32.5602 104.271 32.5602Z" fill="white"/>
<path d="M111.922 32.2377C111.841 32.2377 111.801 32.184 111.801 32.0765L111.861 9.92411C111.861 9.83812 111.901 9.79513 111.982 9.79513H118.079C119.165 9.79513 120.161 10.0853 121.067 10.6657C121.993 11.2247 122.727 11.9878 123.27 12.9551C123.814 13.901 124.085 14.9758 124.085 16.1797C124.085 16.975 123.975 17.6952 123.753 18.3401C123.532 18.9635 123.27 19.5009 122.968 19.9523C122.667 20.3823 122.395 20.7047 122.154 20.9197C123.24 22.2095 123.783 23.725 123.783 25.4663L123.814 32.0765C123.814 32.184 123.763 32.2377 123.663 32.2377H120.252C120.172 32.2377 120.131 32.2055 120.131 32.141V25.4663C120.131 24.6924 119.87 24.026 119.347 23.4671C118.843 22.8867 118.22 22.5964 117.475 22.5964H115.483L115.453 32.0765C115.453 32.184 115.413 32.2377 115.332 32.2377H111.922ZM115.483 18.727H118.079C118.703 18.727 119.256 18.4798 119.739 17.9854C120.222 17.491 120.463 16.8891 120.463 16.1797C120.463 15.4918 120.222 14.9006 119.739 14.4062C119.276 13.9118 118.723 13.6645 118.079 13.6645H115.483V18.727Z" fill="white"/>
<path d="M125.741 32.2377C125.661 32.2377 125.621 32.184 125.621 32.0765L125.651 9.92411C125.651 9.83812 125.691 9.79513 125.772 9.79513H135.46C135.541 9.79513 135.581 9.84887 135.581 9.95635V13.5678C135.581 13.6538 135.541 13.6968 135.46 13.6968H129.273V18.727H135.46C135.541 18.727 135.581 18.77 135.581 18.856L135.611 22.4997C135.611 22.5857 135.571 22.6287 135.49 22.6287H129.273V28.2716H135.49C135.571 28.2716 135.611 28.3253 135.611 28.4328V32.1088C135.611 32.1947 135.571 32.2377 135.49 32.2377H125.741Z" fill="white"/>
<path d="M140.424 32.2377C140.344 32.2377 140.303 32.184 140.303 32.0765V13.6968H136.38C136.279 13.6968 136.229 13.643 136.229 13.5356L136.259 9.92411C136.259 9.83812 136.299 9.79513 136.38 9.79513H147.849C147.95 9.79513 148 9.83812 148 9.92411V13.5356C148 13.643 147.96 13.6968 147.879 13.6968H143.925L143.956 32.0765C143.956 32.184 143.915 32.2377 143.835 32.2377H140.424Z" fill="white"/>
<defs>
<filter id="filter0_i_899_105" x="18.3589" y="6.2373" width="16.9839" height="32.6934" filterUnits="userSpaceOnUse" color-interpolation-filters="sRGB">
<feFlood flood-opacity="0" result="BackgroundImageFix"/>
<feBlend mode="normal" in="SourceGraphic" in2="BackgroundImageFix" result="shape"/>
<feColorMatrix in="SourceAlpha" type="matrix" values="0 0 0 0 0 0 0 0 0 0 0 0 0 0 0 0 0 0 127 0" result="hardAlpha"/>
<feOffset dy="4"/>
<feGaussianBlur stdDeviation="2"/>
<feComposite in2="hardAlpha" operator="arithmetic" k2="-1" k3="1"/>
<feColorMatrix type="matrix" values="0 0 0 0 0 0 0 0 0 0 0 0 0 0 0 0 0 0 0.25 0"/>
<feBlend mode="normal" in2="shape" result="effect1_innerShadow_899_105"/>
</filter>
<linearGradient id="paint0_linear_899_105" x1="20.607" y1="9.36252" x2="33.5641" y2="31.6825" gradientUnits="userSpaceOnUse">
<stop stop-color="white" stop-opacity="0"/>
<stop offset="1" stop-color="white"/>
</linearGradient>
<linearGradient id="paint1_linear_899_105" x1="21.0152" y1="9.0217" x2="8.42843" y2="31.7042" gradientUnits="userSpaceOnUse">
<stop stop-color="white"/>
<stop offset="1" stop-color="white" stop-opacity="0"/>
</linearGradient>
<linearGradient id="paint2_linear_899_105" x1="35.1409" y1="18.355" x2="9.06078" y2="30.9004" gradientUnits="userSpaceOnUse">
<stop stop-color="#C5C5C5" stop-opacity="0"/>
<stop offset="1" stop-color="white"/>
</linearGradient>
<linearGradient id="paint3_linear_899_105" x1="20.607" y1="9.36252" x2="33.5641" y2="31.6825" gradientUnits="userSpaceOnUse">
<stop stop-color="white" stop-opacity="0"/>
<stop offset="1" stop-color="white"/>
</linearGradient>
<linearGradient id="paint4_linear_899_105" x1="21.0152" y1="9.0217" x2="8.42843" y2="31.7042" gradientUnits="userSpaceOnUse">
<stop stop-color="white"/>
<stop offset="1" stop-color="white" stop-opacity="0"/>
</linearGradient>
<linearGradient id="paint5_linear_899_105" x1="35.1409" y1="18.3559" x2="9.06078" y2="30.9014" gradientUnits="userSpaceOnUse">
<stop stop-color="#C5C5C5" stop-opacity="0"/>
<stop offset="1" stop-color="white"/>
</linearGradient>
</defs>
</svg>
